<svg width="88" height="79" viewBox="0 0 88 79" fill="none" xmlns="http://www.w3.org/2000/svg">
<path d="M79.3249 57.2503C68.1301 59.8535 42.2949 60.7168 30.6675 56.0701C19.3515 51.1929 7.59734 46.7459 4.51408 37.3784C3.19346 32.4782 10.3021 24.9904 22.3667 21.1277C25.9429 15.8136 34.0752 10.9898 43.4932 10.882C52.3304 10.6905 60.9163 13.6814 67.1864 16.3339C73.3885 18.7283 74.4311 22.5972 75.7504 27.4972C77.6485 32.4821 81.5851 36.7732 82.4666 42.1038C82.6299 46.8346 86.9397 49.2186 85.5078 54.2106L79.3249 57.2503Z" fill="url(#paint0_linear_2777_8201)"/>
<path d="M78.2248 56.018C68.9914 58.1651 47.6852 58.8758 38.094 55.044C28.7608 51.0214 19.0646 47.3546 16.5252 39.6268C15.435 35.5863 21.2986 29.4099 31.2484 26.2242C34.1962 21.8423 40.9051 17.8632 48.6708 17.7753C55.9592 17.6173 63.0406 20.0836 68.2123 22.2716C73.3272 24.2462 74.1869 27.4368 75.2773 31.4778C76.8439 35.5893 80.0885 39.129 80.8159 43.5258C80.9508 47.4276 84.5063 49.3932 83.3238 53.5112L78.2248 56.018Z" fill="url(#paint1_radial_2777_8201)"/>
<path d="M69.7107 25.4884C66.2317 20.2219 62.344 15.0877 51.879 14.2131C47.9975 13.8887 44.1715 13.0876 39.44 14.0978C34.2045 15.2147 31.2836 19.454 27.4034 21.6904C26.6727 22.1111 27.295 22.5527 28.0338 22.1405C32.1643 19.8344 34.241 16.6374 39.4268 15.0084C43.4274 13.7522 49.3704 15.1475 52.5085 15.4249C62.0597 16.2718 64.3182 21.8851 68.6604 25.9951C68.9275 26.2453 69.8975 25.7715 69.7107 25.4884Z" fill="url(#paint2_linear_2777_8201)"/>
<path d="M57.3921 34.373C60.2622 34.8917 61.472 36.4805 63.6739 37.4668C66.7413 38.842 70.4369 39.7448 72.2381 41.8997C73.4512 43.3489 74.7779 44.7244 76.0116 46.1624C77.4725 47.8591 77.697 50.1807 78.7724 52.0494C78.8897 52.2499 79.4551 52.038 79.4994 51.8079C80.376 47.2893 75.8031 43.871 73.1236 40.6967C71.6752 38.9766 68.3763 38.1287 65.7034 37.1913C62.8739 36.1988 61.1437 34.6044 57.5504 34.2227C57.4302 34.2104 57.2788 34.3526 57.3921 34.373Z" fill="url(#paint3_linear_2777_8201)"/>
<path d="M65.8204 43.6916C68.2267 45.2563 70.5834 46.9755 72.7613 48.6739C75.0887 50.4886 78.2513 51.8584 78.0404 54.7999C78.0104 55.218 79.0314 54.9689 79.2698 54.5652C80.6116 52.2988 77.9131 50.5266 76.1397 49.4087C72.9275 47.3852 69.8233 45.2493 66.3407 43.3961C66.1274 43.2836 65.6231 43.5622 65.8204 43.6916Z" fill="url(#paint4_linear_2777_8201)"/>
<path d="M48.5783 49.1973C53.9278 49.6517 59.3807 49.9911 64.6431 50.5412C67.345 50.8244 69.9578 51.2418 72.4905 51.6926C75.3131 52.1957 76.5776 53.4915 78.3813 54.6453C78.7448 54.8762 79.7591 54.4126 79.5502 54.0821C77.9616 51.5542 74.2016 50.7925 69.779 50.2024C63.1621 49.32 56.0373 49.1021 48.8156 48.9159C48.5512 48.9097 48.3255 49.1759 48.5783 49.1973Z" fill="url(#paint5_linear_2777_8201)"/>
<defs>
<linearGradient id="paint0_linear_2777_8201" x1="84.6839" y1="54.2152" x2="50.7101" y2="1.39474" gradientUnits="userSpaceOnUse">
<stop offset="0.101" stop-color="#601735"/>
<stop offset="0.256" stop-color="#C04989"/>
<stop offset="0.311" stop-color="#D24389"/>
<stop offset="0.511" stop-color="#DE49BD"/>
<stop offset="1" stop-color="#FDFDFD"/>
</linearGradient>
<radialGradient id="paint1_radial_2777_8201" cx="0" cy="0" r="1" gradientUnits="userSpaceOnUse" gradientTransform="translate(87.3083 55.1611) rotate(-152.282) scale(77.1195 104.19)">
<stop stop-color="#30000D"/>
<stop offset="0.261" stop-color="#9C3468"/>
<stop offset="0.381" stop-color="#BF4586"/>
<stop offset="1" stop-color="white" stop-opacity="0"/>
</radialGradient>
<linearGradient id="paint2_linear_2777_8201" x1="71.5478" y1="27.0762" x2="52.5839" y2="5.10482" gradientUnits="userSpaceOnUse">
<stop stop-color="#DF52C0"/>
<stop offset="1" stop-color="#EBD5EC" stop-opacity="0"/>
</linearGradient>
<linearGradient id="paint3_linear_2777_8201" x1="80.0371" y1="52.102" x2="67.4913" y2="30.7633" gradientUnits="userSpaceOnUse">
<stop stop-color="#75354F"/>
<stop offset="0.0001" stop-color="#4B0D23"/>
<stop offset="1" stop-color="#EB4BB1"/>
</linearGradient>
<linearGradient id="paint4_linear_2777_8201" x1="81.4955" y1="54.4202" x2="62.6902" y2="31.5064" gradientUnits="userSpaceOnUse">
<stop stop-color="#832A4F"/>
<stop offset="1" stop-color="#B33F7C"/>
</linearGradient>
<linearGradient id="paint5_linear_2777_8201" x1="80.5673" y1="53.5425" x2="54.9285" y2="33.8532" gradientUnits="userSpaceOnUse">
<stop stop-color="#6B2642"/>
<stop offset="1" stop-color="#C75594"/>
</linearGradient>
</defs>
</svg>
