<svg width="60" height="55" viewBox="0 0 60 55" fill="none" xmlns="http://www.w3.org/2000/svg">
<path d="M2.36541e-06 48.5836C1.44437 39.8553 9.82754 21.0578 18.5434 13.9153C27.3741 7.05689 35.9392 -0.229003 46.2364 0.00551133C51.5184 0.338256 56.329 7.40734 55.8102 17.0906C59.749 21.0517 61.5787 28.1597 58.3196 34.9579C55.3501 41.3606 49.3465 46.75 44.5024 50.5633C39.936 54.3952 35.7656 54.1323 30.4842 53.7987C24.9126 53.8589 19.2937 55.566 13.746 54.8049C9.04373 53.6846 5.16357 56.1589 0.774836 53.8235L2.36541e-06 48.5836Z" fill="url(#paint0_linear_2769_876)"/>
<path d="M1.60349 48.1137C2.79476 40.9145 9.70964 25.4127 16.8979 19.5206C24.1814 13.864 31.2452 7.85334 39.7385 8.0498C44.0943 8.32325 48.0624 14.1543 47.6346 22.1401C50.883 25.4056 52.3919 31.2693 49.7037 36.8747C47.2547 42.1552 42.3035 46.6004 38.3079 49.7455C34.542 52.9057 31.1028 52.6889 26.7464 52.4155C22.1507 52.4659 17.5166 53.8722 12.9406 53.2447C9.06225 52.3208 5.86239 54.3624 2.2425 52.4349L1.60349 48.1137Z" fill="url(#paint1_radial_2769_876)"/>
<path d="M34.615 49.9801C41.0279 48.8571 47.4569 47.4057 52.0544 40.1119C53.7597 37.4066 55.913 34.8658 56.6119 31.2003C57.3861 27.1446 54.2682 23.9357 53.4593 20.5614C53.3073 19.926 52.6516 20.2578 52.7922 20.8967C53.5802 24.4693 55.9765 26.7986 55.7228 30.9526C55.5265 34.157 52.0335 38.0641 50.64 40.2473C46.396 46.8916 40.0789 47.0464 34.4929 49.0925C34.1519 49.219 34.2703 50.0402 34.615 49.9801Z" fill="url(#paint2_linear_2769_876)"/>
<path d="M30.2937 38.803C28.759 40.7305 26.7672 41.1845 25.0123 42.5092C22.5663 44.3544 20.3597 46.7747 17.6008 47.5057C15.7448 47.9986 13.9205 48.5924 12.068 49.1031C9.88056 49.7093 7.52135 49.2633 5.30275 49.5473C5.06402 49.5792 5.07 50.0411 5.28002 50.1332C9.4025 51.9456 14.392 49.5526 18.4654 48.4571C20.6714 47.8659 22.6824 45.7164 24.5575 44.0403C26.5428 42.2659 28.7261 41.4394 30.3847 38.9562C30.4397 38.873 30.3541 38.7269 30.2937 38.803Z" fill="url(#paint3_linear_2769_876)"/>
<path d="M18.1346 42.4242C15.7389 43.7446 13.2091 44.9889 10.7638 46.1101C8.15087 47.3084 5.67619 49.2234 2.86405 48.3022C2.46437 48.1712 2.3441 48.9703 2.65523 49.2473C4.40055 50.8048 7.10439 49.3287 8.83536 48.3464C11.9694 46.5668 15.1752 44.8942 18.2387 42.8756C18.4254 42.7517 18.332 42.3163 18.1346 42.4242Z" fill="url(#paint4_linear_2769_876)"/>
<path d="M18.8924 28.5844C16.535 32.311 14.2536 36.1419 11.8334 39.7809C10.59 41.649 9.24679 43.4181 7.89936 45.1207C6.39696 47.0181 4.67317 47.588 2.89614 48.5827C2.53954 48.7836 2.63228 49.634 3.03136 49.5703C6.08044 49.0898 8.17159 46.5863 10.331 43.5615C13.5613 39.0358 16.3208 33.9712 19.0839 28.8287C19.1844 28.6402 19.0037 28.4083 18.8924 28.5844Z" fill="url(#paint5_linear_2769_876)"/>
<defs>
<linearGradient id="paint0_linear_2769_876" x1="1.06471" y1="53.2301" x2="62.4681" y2="34.258" gradientUnits="userSpaceOnUse">
<stop offset="0.101" stop-color="#601735"/>
<stop offset="0.256" stop-color="#C04989"/>
<stop offset="0.311" stop-color="#D24389"/>
<stop offset="0.511" stop-color="#DE49BD"/>
<stop offset="1" stop-color="#FDFDFD"/>
</linearGradient>
<radialGradient id="paint1_radial_2769_876" cx="0" cy="0" r="1" gradientUnits="userSpaceOnUse" gradientTransform="translate(-0.800786 54.8675) rotate(-33.6602) scale(71.6095 89.6683)">
<stop stop-color="#30000D"/>
<stop offset="0.261" stop-color="#9C3468"/>
<stop offset="0.381" stop-color="#BF4586"/>
<stop offset="1" stop-color="white" stop-opacity="0"/>
</radialGradient>
<linearGradient id="paint2_linear_2769_876" x1="32.4" y1="50.8852" x2="57.957" y2="37.6291" gradientUnits="userSpaceOnUse">
<stop stop-color="#DF52C0"/>
<stop offset="1" stop-color="#EBD5EC" stop-opacity="0"/>
</linearGradient>
<linearGradient id="paint3_linear_2769_876" x1="4.79922" y1="50.4427" x2="29.525" y2="44.2135" gradientUnits="userSpaceOnUse">
<stop stop-color="#75354F"/>
<stop offset="0.0001" stop-color="#4B0D23"/>
<stop offset="1" stop-color="#EB4BB1"/>
</linearGradient>
<linearGradient id="paint4_linear_2769_876" x1="2.00234" y1="50.8852" x2="28.6755" y2="38.0755" gradientUnits="userSpaceOnUse">
<stop stop-color="#832A4F"/>
<stop offset="1" stop-color="#B33F7C"/>
</linearGradient>
<linearGradient id="paint5_linear_2769_876" x1="3.19766" y1="50.4427" x2="26" y2="30.6223" gradientUnits="userSpaceOnUse">
<stop stop-color="#6B2642"/>
<stop offset="1" stop-color="#C75594"/>
</linearGradient>
</defs>
</svg>
