<svg width="1440" height="111" viewBox="0 0 1440 111" fill="none" xmlns="http://www.w3.org/2000/svg">
<g clip-path="url(#clip0_2798_470)">
<path d="M1453 38.5854L1439.31 37.6106L1438.92 46.1478L1430.31 41.2574L1422.28 44.9714L1413.48 44.3496L1408.59 43.9967L1399 39.0223L1390.38 42.6858L1387.34 52.2649L1379.22 42.5009L1374.34 51.3406L1365.52 41.5263L1355.32 49.9794L1346.52 49.3576L1346.24 55.458L1339.98 63.5751L1334.11 63.1549L1322.37 62.3146L1317.82 54.6513L1311.62 61.5584L1305.75 61.1382L1293.84 60.2812L1292.85 48.1645L1282.27 47.4081L1271.17 53.9624L1264.58 33.9303L1250.31 57.1889L1238.57 56.3487L1227.81 55.5756L1211.18 54.3824L1204.98 61.2895L1205.94 40.5516L1190.99 45.61L1185.34 40.3163L1175.22 46.9376L1165.39 47.4586L1160.55 45.8957L1153.48 50.2819L1142.66 44.4841L1137.18 40.4171L1131.62 48.5845L1122.82 47.9628L1119.3 39.1399L1105.21 46.7023L1091.21 45.6772C1091.21 45.6772 1079.45 60.7686 1074.95 51.8785C1070.45 42.9884 1059.09 54.3656 1059.09 54.3656L1044.14 59.4241L1029.41 59.5922L1029.8 51.055L1018.13 59.3064L1014.21 56.1806L1010.6 49.1896L1000.82 48.4837L995.315 40.1314L987.715 34.6865L981.538 19.5616L971.757 18.8557L951.214 17.3937L942.692 10.6715L921.532 22.6201L909.432 8.30194C909.432 8.30194 879.272 30.6195 863.523 28.2835C847.774 25.9308 835.344 18.9229 835.344 18.9229L827.822 33.0731L820.725 52.1474L807.191 54.853L785.987 38.5854L774.886 54.5505L764.262 45.9125L753.699 51.055L724.86 37.9803L720.586 24.2167L716.148 14.1166L701.476 13.0746L701.928 3.31076L689.636 2.43686L681.158 0.605034L672.628 0L660.397 10.1338L655.941 20.822L646.438 18.9229L635.111 26.6871L626.303 26.0653L626.025 32.1656L611.353 31.1238L599.166 40.0474L598.775 48.5845L584.104 47.5426L583.348 41.6272L573.923 54.5841L564.142 39.2239L555.768 51.66L550.6 57.4074L551.225 43.8118L544.38 43.3245L533.617 42.5515L518.946 41.5095L507.558 54.332L496.795 53.559L488.969 53.0043L472.334 59.1552L443.686 49.7946L444.077 41.2574L434.886 40.602L408.557 12.7218L393.434 21.427L388.04 32.0481L371.414 30.8549L364.873 45.0722L350.392 61.1718L331.812 59.8443L326.557 46.0133C326.557 46.0133 327.868 38.7702 322.978 38.4173C318.087 38.0644 304.397 37.0896 304.397 37.0896L294.955 29.0735L282.516 22.0656L257.785 26.4183L243.418 57.4915L236.686 54.5673L221.875 35.157L216.984 34.804L208.237 32.9556L199.325 34.7705L189.544 34.0646L181.882 29.8465L171.406 22.9731L160.739 27.1072L149.551 28.7542L138.206 34.031L138.65 24.2671L127.887 23.4941L118.636 32.6194L118.358 38.7197L108.125 47.7779L103.069 51.0886L94.157 52.9036L86.6693 45.0218L81.136 37.2913L73.7003 34.7033L68.1495 46.8368L54.39 50.0971L46.4244 48.2317L33.4556 49.7778L-4.74792 58.3317L-13 78.2798L5.31982 74.7002L12.3646 70.919L10.6187 76.9186L18.9055 78.1285L21.9807 75.2884L31.2753 75.9607L34.4458 81.6913L50.8807 87.1531L57.2393 87.6069L62.8159 83.7247L72.8923 88.7327L81.5007 93.6231L86.7736 96.4465L95.0865 97.0347L98.1614 94.1946L101.124 93.7912L115.248 96.0264L119.053 98.7488L129.815 99.5219L135.192 99.9083L138.545 90.9679L143.523 89.4891L155.258 75.6581L164.874 80.0107L168.983 76.0279L179.285 76.1456L181.726 76.3135L186.13 76.6329L195.225 81.5737L201.983 83.8928L205.292 86.5816L210.505 90.6318L214.274 93.9593L213.449 101.236L218.635 105.891C221.363 99.9588 222.857 99.4547 222.944 97.6229C223.03 95.7911 221.675 93.2535 223.169 92.7493C224.663 92.2451 228.173 90.6654 228.173 90.6654L236.086 89.3881L240.977 89.7411L245.98 87.6572L246.719 82.1954C249.742 80.5821 254.632 66.2639 254.632 66.2639L260.391 69.1208L266.724 70.1796L275.384 73.86C275.384 73.86 277.825 74.028 279.241 75.3556C280.648 76.6832 286.694 71.7089 286.694 71.7089L290.116 71.9442L301.878 72.1795L308.332 81.2039L315.846 88.4638C315.846 88.4638 322.665 89.5562 326.114 89.2033C329.562 88.8335 340.412 87.7748 340.412 87.7748L345.849 86.9346L351.226 87.3211L355.709 85.8086L361.972 77.6916L369.416 75.7758C369.416 75.7758 373.438 73.6247 375.453 72.5323C377.468 71.4568 398.846 77.7757 398.846 77.7757L405.23 77.6244L409.139 77.9101L411.267 74.3977L415.263 72.8516L419.58 75.0028L423.924 76.532L432.437 72.8516L436.919 71.3391L442.626 72.9693L468.564 91.3209C468.564 91.3209 469.667 99.3538 479.839 91.5224C490.011 83.6911 494.962 82.8172 494.962 82.8172L499.714 86.212L508.409 89.2874L523.081 90.3292L527.997 90.0772L534.469 88.0942L539.985 85.4221L543.954 84.481L552.128 88.1278L555.525 88.9849L560.467 88.111L570.535 71.2046L580.316 86.5648L590.905 91.0015L592.052 87.4052C592.052 87.4052 595.674 83.3719 598.775 79.9267C601.876 76.4816 609.903 72.7676 609.903 72.7676L619.162 85.5398L631.419 85.8086L634.294 87.2371L643.215 89.1025L647.524 87.5733L653.083 83.0693L656.749 79.0528L659.824 76.2127L663.151 72.7844L669.353 71.3895L675.868 68.8015L688.264 73.5743L698.106 74.2801L705.446 74.8012L708.738 77.9606L717.051 78.5488L725.989 76.2633L734.65 69.4066L739.566 69.1377L749.321 70.4486L754.212 70.8014L766.043 71.6417L771.82 72.0619L778.916 81.725L789.844 78.8345L796.75 78.0951L803.638 79.2041L813.836 79.9267L821.55 75.5742L835.344 71.0535L839.383 63.9279L843.188 65.4237L856.687 82.5484L869.039 69.3224L880.766 73.8264L885.118 76.5824L896.549 79.2377L906.904 78.1453L923.174 65.8437L932.764 70.8182L932.46 77.5235L934.874 78.3134L945.177 78.431L948.095 74.717L954.506 73.944L955.705 69.1377L960.778 76.2295L969.23 73.7759L978.09 73.1878L994.316 72.5155L1004.91 76.9522L1007.38 76.5152L1019.34 65.0035L1028.85 71.7929L1053.97 82.5821C1053.97 82.5821 1062.49 78.5655 1066.98 77.0531C1071.46 75.5406 1082.64 77.8934 1082.64 77.8934L1091.17 69.9612L1098.5 70.4821L1103.85 71.4736C1103.85 71.4736 1109.92 69.7091 1111.33 71.0199C1112.73 72.3475 1116.49 76.28 1118.95 75.8431C1121.43 75.4061 1124.85 75.6582 1124.85 75.6582L1147.57 77.0531L1156.8 86.4137L1167.84 78.8176L1174.06 82.3131L1178.29 86.4137L1183.01 90.2789L1190.02 87.2539L1200 83.5399L1217.26 81.708C1217.26 81.708 1221.5 85.6742 1222.59 83.3046C1223.68 80.935 1227.13 80.5653 1231.64 78.4478C1236.16 76.3135 1234.69 76.2127 1238.23 74.028C1241.76 71.8264 1245.73 70.8854 1245.73 70.8854C1245.73 70.8854 1247.22 70.3812 1249.7 69.9443C1252.18 69.5073 1260.4 71.9273 1260.4 71.9273L1263.8 72.7844L1269.47 92.1275L1277.3 92.682L1294.27 96.9507C1294.27 96.9507 1310.41 98.0934 1311.88 98.211C1313.35 98.3119 1333.07 96.06 1333.07 96.06L1346.98 103.169L1362.32 111L1365.34 109.387C1365.34 109.387 1373.36 105.673 1381.41 101.354C1389.47 97.0347 1388.95 97.606 1397.4 95.1525C1405.85 92.6989 1409.79 92.3627 1409.79 92.3627L1420.2 90.0436L1436.16 84.4474L1442.36 77.5404L1446.67 69.2889L1453 38.5854Z" fill="#00080E"/>
</g>
<defs>
<clipPath id="clip0_2798_470">
<rect width="1440" height="111" fill="white"/>
</clipPath>
</defs>
</svg>
