<svg width="73" height="76" viewBox="0 0 73 76" fill="none" xmlns="http://www.w3.org/2000/svg">
<path d="M66.1754 58.5761C57.4794 60.2041 36.9484 58.7556 27.2556 53.0083C17.7905 47.0558 8.0146 41.4992 4.71311 31.7428C3.21923 26.6655 8.21669 19.7273 17.4934 16.9029C19.8684 11.8469 25.922 7.69644 33.4249 8.43384C40.4571 9.03441 47.5748 12.8327 52.8149 16.0804C57.9775 19.0609 59.1569 23.0696 60.6497 28.1466C62.6119 33.3617 66.1378 38.0579 67.3201 43.5313C67.8756 48.3331 71.5278 51.133 70.8342 56.0558L66.1754 58.5761Z" fill="url(#paint0_linear_2777_8175)"/>
<path d="M65.1869 57.23C58.0145 58.5729 41.0825 57.3769 33.0872 52.6373C25.2806 47.7278 17.2165 43.1457 14.4962 35.0975C13.2634 30.9108 17.3856 25.1877 25.0362 22.8584C26.9937 18.6891 31.9877 15.2656 38.1745 15.8746C43.9741 16.3698 49.8446 19.5021 54.1667 22.181C58.4243 24.6389 59.3969 27.9449 60.6299 32.1321C62.2491 36.4335 65.1555 40.3071 66.131 44.8217C66.5893 48.7822 69.6021 51.0908 69.029 55.1516L65.1869 57.23Z" fill="url(#paint1_radial_2777_8175)"/>
<path d="M55.6483 25.571C52.3996 19.929 48.837 14.3841 40.4106 12.5584C37.2852 11.8813 34.1612 10.7268 30.4777 11.3237C26.4017 11.9833 24.4528 16.0107 21.5586 17.9249C21.0135 18.2851 21.5496 18.7878 22.1019 18.4371C25.1895 16.4748 26.5587 13.4263 30.549 12.244C33.6273 11.3324 38.4934 13.2785 41.0216 13.8413C48.7167 15.5568 51.0228 21.44 54.8559 25.9893C55.0915 26.2665 55.8227 25.8743 55.6483 25.571Z" fill="url(#paint2_linear_2777_8175)"/>
<path d="M46.624 33.4545C48.9601 34.2374 50.0679 35.9538 51.913 37.1498C54.4835 38.8172 57.5126 40.0629 59.1431 42.4054C60.2411 43.9809 61.423 45.4921 62.5364 47.0582C63.8542 48.9064 64.242 51.2759 65.2677 53.2635C65.3793 53.477 65.8114 53.3133 65.826 53.0845C66.1191 48.5908 62.164 44.7206 59.7413 41.2676C58.4313 39.3968 55.7236 38.2423 53.5073 37.0535C51.1609 35.7948 49.6375 34.0259 46.7368 33.3166C46.6398 33.2933 46.5318 33.4237 46.624 33.4545Z" fill="url(#paint3_linear_2777_8175)"/>
<path d="M54.1846 43.6418C56.2447 45.4414 58.2791 47.393 60.1691 49.3074C62.1888 51.3529 64.8347 53.0234 64.9308 55.981C64.9445 56.4014 65.7365 56.2411 65.8904 55.854C66.757 53.6812 64.4452 51.6453 62.9301 50.3547C60.1859 48.0183 57.5177 45.5779 54.5731 43.3896C54.3928 43.2566 54.0156 43.4932 54.1846 43.6418Z" fill="url(#paint4_linear_2777_8175)"/>
<path d="M40.9223 47.6632C45.2304 48.6038 49.6107 49.4374 53.8579 50.4671C56.0387 50.9965 58.1604 51.6537 60.2213 52.3375C62.518 53.1004 63.6432 54.5253 65.1857 55.8549C65.4964 56.1213 66.2638 55.7433 66.0675 55.3901C64.5731 52.6892 61.5053 51.5805 57.9244 50.5859C52.5668 49.0982 46.8638 48.2373 41.0864 47.3997C40.8749 47.3697 40.7188 47.6188 40.9223 47.6632Z" fill="url(#paint5_linear_2777_8175)"/>
<defs>
<linearGradient id="paint0_linear_2777_8175" x1="70.1775" y1="55.9864" x2="31.3484" y2="4.77492" gradientUnits="userSpaceOnUse">
<stop offset="0.101" stop-color="#601735"/>
<stop offset="0.256" stop-color="#C04989"/>
<stop offset="0.311" stop-color="#D24389"/>
<stop offset="0.511" stop-color="#DE49BD"/>
<stop offset="1" stop-color="#FDFDFD"/>
</linearGradient>
<radialGradient id="paint1_radial_2777_8175" cx="0" cy="0" r="1" gradientUnits="userSpaceOnUse" gradientTransform="translate(72.3557 57.1794) rotate(-143.66) scale(71.6095 89.6683)">
<stop stop-color="#30000D"/>
<stop offset="0.261" stop-color="#9C3468"/>
<stop offset="0.381" stop-color="#BF4586"/>
<stop offset="1" stop-color="white" stop-opacity="0"/>
</radialGradient>
<linearGradient id="paint2_linear_2777_8175" x1="57.2564" y1="27.3429" x2="36.0587" y2="7.86094" gradientUnits="userSpaceOnUse">
<stop stop-color="#DF52C0"/>
<stop offset="1" stop-color="#EBD5EC" stop-opacity="0"/>
</linearGradient>
<linearGradient id="paint3_linear_2777_8175" x1="66.2813" y1="53.4304" x2="51.9711" y2="32.3264" gradientUnits="userSpaceOnUse">
<stop stop-color="#75354F"/>
<stop offset="0.0001" stop-color="#4B0D23"/>
<stop offset="1" stop-color="#EB4BB1"/>
</linearGradient>
<linearGradient id="paint4_linear_2777_8175" x1="67.6528" y1="55.9073" x2="46.4928" y2="35.2239" gradientUnits="userSpaceOnUse">
<stop stop-color="#832A4F"/>
<stop offset="1" stop-color="#B33F7C"/>
</linearGradient>
<linearGradient id="paint5_linear_2777_8175" x1="66.8303" y1="54.9354" x2="40.4064" y2="40.2872" gradientUnits="userSpaceOnUse">
<stop stop-color="#6B2642"/>
<stop offset="1" stop-color="#C75594"/>
</linearGradient>
</defs>
</svg>
