<svg width="53" height="46" viewBox="0 0 53 46" fill="none" xmlns="http://www.w3.org/2000/svg">
<g clip-path="url(#clip0_2811_458)">
<path d="M0 40.6336C1.27586 33.3335 8.68099 17.612 16.38 11.6383C24.1805 5.90213 31.7463 -0.191527 40.8421 0.00461279C45.5079 0.282908 49.7573 6.19524 49.299 14.2939C52.7783 17.6068 54.3945 23.5517 51.5157 29.2375C48.8926 34.5925 43.5894 39.1 39.3105 42.2893C35.2768 45.4941 31.593 45.2743 26.9277 44.9953C22.0061 45.0456 17.0428 46.4734 12.1423 45.8368C7.98863 44.8998 4.56115 46.9693 0.684438 45.016L0 40.6336Z" fill="url(#paint0_linear_2811_458)"/>
<path d="M48.8007 14.2657L48.7877 14.4966L48.9551 14.656C52.2812 17.8231 53.8456 23.5307 51.0705 29.0117L51.0675 29.0176C48.5017 34.2557 43.2872 38.7023 39.0126 41.8884L39.0064 41.893L39.0003 41.8978C35.131 44.9721 31.6304 44.7756 26.9585 44.4962L26.941 44.4951L26.9235 44.4953C24.9232 44.5158 22.9117 44.7609 20.9327 45.0021C20.4432 45.0618 19.9557 45.1212 19.4709 45.1769C17.0158 45.459 14.6087 45.6497 12.2301 45.3439C10.3667 44.9281 8.63506 45.0902 7.03102 45.2403C6.77361 45.2644 6.5195 45.2882 6.26866 45.3093C4.50614 45.4571 2.86422 45.4794 1.13897 44.68L0.507812 40.6387C1.15094 37.0567 3.28523 31.3977 6.2237 25.8734C9.18538 20.3053 12.9192 14.9593 16.6823 12.0372C17.2037 11.6538 17.7231 11.2695 18.2413 10.8861C21.6129 8.39168 24.9307 5.93699 28.3683 4.0343C32.3243 1.84467 36.3978 0.411088 40.8226 0.504289C42.9439 0.634591 45.0408 2.05196 46.5698 4.48283C48.0965 6.91022 49.0247 10.3076 48.8007 14.2657Z" stroke="#B1607A" stroke-opacity="0.1"/>
<path d="M1.41406 40.2405C2.46635 34.2194 8.57449 21.2542 14.9242 16.3263C21.3579 11.5953 27.5976 6.56824 35.1 6.73256C38.9476 6.96126 42.4528 11.8381 42.0749 18.5172C44.9443 21.2483 46.2772 26.1525 43.9025 30.8406C41.7393 35.2571 37.3658 38.9749 33.8363 41.6054C30.5098 44.2484 27.4718 44.0671 23.6236 43.8384C19.5641 43.8806 15.4707 45.0567 11.4285 44.5319C8.00263 43.7592 5.17608 45.4667 1.97852 43.8547L1.41406 40.2405Z" fill="url(#paint1_radial_2811_458)"/>
<path d="M41.5766 18.489L41.5635 18.7199L41.7311 18.8794C44.4471 21.4646 45.7283 26.1315 43.4574 30.6147L43.4544 30.6207C41.3484 34.9203 37.0635 38.5772 33.5384 41.2045L33.5322 41.2091L33.5262 41.2139C30.364 43.7264 27.5092 43.5684 23.6542 43.3393L23.6368 43.3383L23.6194 43.3384C21.9649 43.3556 20.3006 43.5583 18.6687 43.757C18.2648 43.8062 17.8628 43.8552 17.4634 43.901C15.4409 44.1332 13.4657 44.2889 11.5162 44.039C9.96649 43.694 8.52491 43.8292 7.20379 43.9531C6.99174 43.9729 6.7828 43.9925 6.577 44.0098C5.14158 44.1303 3.81886 44.1476 2.43287 43.5176L1.92188 40.2458C2.45319 37.3032 4.20736 32.653 6.62494 28.1083C9.06576 23.5199 12.138 19.1244 15.2266 16.7252C15.6578 16.4082 16.0872 16.0904 16.5155 15.7736C19.2956 13.7167 22.0257 11.6968 24.8544 10.1312C28.1088 8.32983 31.4524 7.15495 35.0804 7.23223C36.7927 7.33775 38.499 8.48382 39.7497 10.4722C40.9982 12.4571 41.7604 15.2407 41.5766 18.489Z" stroke="#B1607A" stroke-opacity="0.1"/>
<path d="M30.5731 41.8015C36.2378 40.8623 41.9168 39.6484 45.9779 33.5481C47.4842 31.2855 49.3864 29.1605 50.0037 26.0948C50.6876 22.7027 47.9335 20.019 47.2189 17.1968C47.0847 16.6654 46.5054 16.9429 46.6296 17.4773C47.3257 20.4653 49.4424 22.4133 49.2183 25.8876C49.045 28.5677 45.9594 31.8354 44.7285 33.6614C40.9797 39.2184 35.3995 39.3479 30.4653 41.0592C30.164 41.165 30.2686 41.8518 30.5731 41.8015Z" fill="url(#paint2_linear_2811_458)"/>
<path d="M47.1149 17.3223C47.1151 17.3224 47.115 17.3239 47.1143 17.3264M38.2215 39.2699C38.8287 39.0396 39.4292 38.7803 40.018 38.4799C37.6732 39.7912 35.1102 40.4623 32.4727 40.961C32.9945 40.8139 33.5223 40.6737 34.0554 40.5321C34.1633 40.5035 34.2714 40.4748 34.3797 40.446C35.6547 40.1065 36.9546 39.7505 38.2215 39.2699Z" stroke="#B1607A" stroke-opacity="0.1"/>
<path d="M26.7575 32.4535C25.4018 34.0655 23.6424 34.4452 22.0922 35.5532C19.9316 37.0964 17.9824 39.1207 15.5454 39.7321C13.9059 40.1443 12.2945 40.641 10.6582 41.068C8.72591 41.575 6.64194 41.202 4.68218 41.4396C4.4713 41.4662 4.47658 41.8526 4.6621 41.9296C8.30362 43.4454 12.711 41.444 16.3091 40.5277C18.2578 40.0333 20.0342 38.2355 21.6906 36.8337C23.4442 35.3497 25.3728 34.6584 26.8378 32.5815C26.8865 32.512 26.8109 32.3898 26.7575 32.4535Z" fill="url(#paint3_linear_2811_458)"/>
<path d="M14.2689 40.5862C13.924 40.6812 13.5789 40.7781 13.2327 40.8757C13.1571 40.8971 13.0815 40.9184 13.0058 40.9398C12.27 41.1474 11.5284 41.3567 10.7815 41.5517M14.2689 40.5862L10.7815 41.5517M14.2689 40.5862C14.1363 40.6261 14.0035 40.6663 13.8704 40.7065C13.6926 40.7603 13.5144 40.8141 13.3361 40.8676C12.3617 41.1599 11.3764 41.4435 10.3946 41.6516C8.92076 41.964 7.49095 42.098 6.16016 41.8527C6.47341 41.8487 6.79133 41.8506 7.11527 41.8526C7.30038 41.8537 7.48746 41.8548 7.67675 41.8549C8.68889 41.855 9.74853 41.8227 10.7815 41.5517M17.6778 39.3955C17.3005 39.6193 16.9234 39.803 16.5451 39.9341C16.9352 39.7819 17.312 39.5994 17.6778 39.3955Z" stroke="#B1607A" stroke-opacity="0.1"/>
<path d="M16.0166 35.4822C13.9004 36.5865 11.6658 37.6271 9.50569 38.5649C7.19763 39.567 5.01166 41.1687 2.5276 40.3982C2.17455 40.2887 2.06832 40.9571 2.34315 41.1888C3.88485 42.4914 6.27324 41.2568 7.80226 40.4352C10.5707 38.9468 13.4025 37.5479 16.1086 35.8596C16.2735 35.756 16.191 35.3919 16.0166 35.4822Z" fill="url(#paint4_linear_2811_458)"/>
<path d="M7.56794 39.9949C7.56797 39.9949 7.5679 39.995 7.56794 39.9949ZM7.56794 39.9949L7.59063 40.0368M7.56794 39.9949C7.32017 40.128 7.05601 40.2684 6.78125 40.4053C7.05395 40.289 7.32399 40.1644 7.59063 40.0368M7.59063 40.0368C7.59059 40.0368 7.59067 40.0368 7.59063 40.0368ZM7.59063 40.0368L7.80471 40.4352" stroke="#B1607A" stroke-opacity="0.1"/>
<path d="M16.6896 23.907C14.6073 27.0237 12.592 30.2278 10.4541 33.2713C9.3558 34.8338 8.16926 36.3133 6.97903 37.7373C5.65191 39.3242 4.12923 39.8009 2.55952 40.6328C2.24452 40.8009 2.32644 41.5121 2.67897 41.4588C5.37232 41.0569 7.2195 38.9631 9.12694 36.4332C11.9805 32.6481 14.418 28.4122 16.8588 24.1112C16.9475 23.9536 16.7879 23.7597 16.6896 23.907Z" fill="url(#paint5_linear_2811_458)"/>
<path d="M3.74104 40.6007C4.32166 40.3202 4.91523 40.0336 5.49802 39.6669C4.81713 40.1935 4.09799 40.5876 3.30469 40.8128C3.44906 40.7417 3.59464 40.6714 3.74104 40.6007Z" stroke="#B1607A" stroke-opacity="0.1"/>
<g clip-path="url(#clip1_2811_458)">
<path d="M0 40.6336C1.27586 33.3335 8.68099 17.612 16.38 11.6383C24.1805 5.90213 31.7463 -0.191527 40.8421 0.00461279C45.5079 0.282908 49.7573 6.19524 49.299 14.2939C52.7783 17.6068 54.3945 23.5517 51.5157 29.2375C48.8926 34.5925 43.5894 39.1 39.3105 42.2893C35.2768 45.4941 31.593 45.2743 26.9277 44.9953C22.0061 45.0456 17.0428 46.4734 12.1423 45.8368C7.98863 44.8998 4.56115 46.9693 0.684438 45.016L0 40.6336Z" fill="url(#paint6_linear_2811_458)"/>
<path d="M48.8007 14.2657L48.7877 14.4966L48.9551 14.656C52.2812 17.8231 53.8456 23.5307 51.0705 29.0117L51.0675 29.0176C48.5017 34.2557 43.2872 38.7023 39.0126 41.8884L39.0064 41.893L39.0003 41.8978C35.131 44.9721 31.6304 44.7756 26.9585 44.4962L26.941 44.4951L26.9235 44.4953C24.9232 44.5158 22.9117 44.7609 20.9327 45.0021C20.4432 45.0618 19.9557 45.1212 19.4709 45.1769C17.0158 45.459 14.6087 45.6497 12.2301 45.3439C10.3667 44.9281 8.63506 45.0902 7.03102 45.2403C6.77361 45.2644 6.5195 45.2882 6.26866 45.3093C4.50614 45.4571 2.86422 45.4794 1.13897 44.68L0.507812 40.6387C1.15094 37.0567 3.28523 31.3977 6.2237 25.8734C9.18538 20.3053 12.9192 14.9593 16.6823 12.0372C17.2037 11.6538 17.7231 11.2695 18.2413 10.8861C21.6129 8.39168 24.9307 5.93699 28.3683 4.0343C32.3243 1.84467 36.3978 0.411088 40.8226 0.504289C42.9439 0.634591 45.0408 2.05196 46.5698 4.48283C48.0965 6.91022 49.0247 10.3076 48.8007 14.2657Z" stroke="#B1607A" stroke-opacity="0.1"/>
<path d="M1.41406 40.2405C2.46635 34.2194 8.57449 21.2542 14.9242 16.3263C21.3579 11.5953 27.5976 6.56824 35.1 6.73256C38.9476 6.96126 42.4528 11.8381 42.0749 18.5172C44.9443 21.2483 46.2772 26.1525 43.9025 30.8406C41.7393 35.2571 37.3658 38.9749 33.8363 41.6054C30.5098 44.2484 27.4718 44.0671 23.6236 43.8384C19.5641 43.8806 15.4707 45.0567 11.4285 44.5319C8.00263 43.7592 5.17608 45.4667 1.97852 43.8547L1.41406 40.2405Z" fill="url(#paint7_radial_2811_458)"/>
<path d="M41.5766 18.489L41.5635 18.7199L41.7311 18.8794C44.4471 21.4646 45.7283 26.1315 43.4574 30.6147L43.4544 30.6207C41.3484 34.9203 37.0635 38.5772 33.5384 41.2045L33.5322 41.2091L33.5262 41.2139C30.364 43.7264 27.5092 43.5684 23.6542 43.3393L23.6368 43.3383L23.6194 43.3384C21.9649 43.3556 20.3006 43.5583 18.6687 43.757C18.2648 43.8062 17.8628 43.8552 17.4634 43.901C15.4409 44.1332 13.4657 44.2889 11.5162 44.039C9.96649 43.694 8.52491 43.8292 7.20379 43.9531C6.99174 43.9729 6.7828 43.9925 6.577 44.0098C5.14158 44.1303 3.81886 44.1476 2.43287 43.5176L1.92188 40.2458C2.45319 37.3032 4.20736 32.653 6.62494 28.1083C9.06576 23.5199 12.138 19.1244 15.2266 16.7252C15.6578 16.4082 16.0872 16.0904 16.5155 15.7736C19.2956 13.7167 22.0257 11.6968 24.8544 10.1312C28.1088 8.32983 31.4524 7.15495 35.0804 7.23223C36.7927 7.33775 38.499 8.48382 39.7497 10.4722C40.9982 12.4571 41.7604 15.2407 41.5766 18.489Z" stroke="#B1607A" stroke-opacity="0.1"/>
<path d="M47.1149 17.3223C47.1151 17.3224 47.115 17.3239 47.1143 17.3264M38.2215 39.2699C38.8287 39.0396 39.4292 38.7803 40.018 38.4799C37.6732 39.7912 35.1102 40.4623 32.4727 40.961C32.9945 40.8139 33.5223 40.6737 34.0554 40.5321C34.1633 40.5035 34.2714 40.4748 34.3797 40.446C35.6547 40.1065 36.9546 39.7505 38.2215 39.2699Z" stroke="#B1607A" stroke-opacity="0.1"/>
<path d="M14.2689 40.5862C13.924 40.6812 13.5789 40.7781 13.2327 40.8757C13.1571 40.8971 13.0815 40.9184 13.0058 40.9398C12.27 41.1474 11.5284 41.3567 10.7815 41.5517M14.2689 40.5862L10.7815 41.5517M14.2689 40.5862C14.1363 40.6261 14.0035 40.6663 13.8704 40.7065C13.6926 40.7603 13.5144 40.8141 13.3361 40.8676C12.3617 41.1599 11.3764 41.4435 10.3946 41.6516C8.92076 41.964 7.49095 42.098 6.16016 41.8527C6.47341 41.8487 6.79133 41.8506 7.11527 41.8526C7.30038 41.8537 7.48746 41.8548 7.67675 41.8549C8.68889 41.855 9.74853 41.8227 10.7815 41.5517M17.6778 39.3955C17.3005 39.6193 16.9234 39.803 16.5451 39.9341C16.9352 39.7819 17.312 39.5994 17.6778 39.3955Z" stroke="#B1607A" stroke-opacity="0.1"/>
<path d="M7.56794 39.9949C7.56797 39.9949 7.5679 39.995 7.56794 39.9949ZM7.56794 39.9949L7.59063 40.0368M7.56794 39.9949C7.32017 40.128 7.05601 40.2684 6.78125 40.4053C7.05395 40.289 7.32399 40.1644 7.59063 40.0368M7.59063 40.0368C7.59059 40.0368 7.59067 40.0368 7.59063 40.0368ZM7.59063 40.0368L7.80471 40.4352" stroke="#B1607A" stroke-opacity="0.1"/>
<path d="M3.74104 40.6007C4.32166 40.3202 4.91523 40.0336 5.49802 39.6669C4.81713 40.1935 4.09799 40.5876 3.30469 40.8128C3.44906 40.7417 3.59464 40.6714 3.74104 40.6007Z" stroke="url(#paint8_linear_2811_458)" stroke-opacity="0.1"/>
<path d="M6.45242 38.6238C5.573 39.4784 4.70478 40.3671 3.8162 41.1933C3.35978 41.6174 2.88574 42.0074 2.41563 42.3789C1.89167 42.7929 1.41297 42.8277 0.888399 42.9751C0.783051 43.005 0.741674 43.2444 0.847231 43.255C1.65372 43.3378 2.37263 42.7993 3.14854 42.1229C4.30932 41.1108 5.39227 39.918 6.48209 38.7041C6.52185 38.6596 6.49389 38.5834 6.45242 38.6238Z" fill="url(#paint9_linear_2811_458)"/>
<path d="M9.47086 35.7914C8.11001 37.0067 6.76822 38.2719 5.39187 39.4455C4.68486 40.0479 3.94865 40.5996 3.21806 41.1246C2.40369 41.7095 1.64687 41.7426 0.821669 41.9383C0.65593 41.9781 0.599217 42.3262 0.766868 42.3456C2.04715 42.4966 3.16558 41.737 4.36914 40.7781C6.16968 39.3434 7.84027 37.6418 9.52089 35.9098C9.58219 35.8462 9.53511 35.734 9.47086 35.7914Z" fill="url(#paint10_linear_2811_458)"/>
<path d="M9.47086 35.7914C8.11001 37.0067 6.76822 38.2719 5.39187 39.4455C4.68486 40.0479 3.94865 40.5996 3.21806 41.1246C2.40369 41.7095 1.64687 41.7426 0.821669 41.9383C0.65593 41.9781 0.599217 42.3262 0.766868 42.3456C2.04715 42.4966 3.16558 41.737 4.36914 40.7781C6.16968 39.3434 7.84027 37.6418 9.52089 35.9098C9.58219 35.8462 9.53511 35.734 9.47086 35.7914Z" fill="url(#paint11_linear_2811_458)"/>
<path d="M9.6075 37.0693C8.24665 38.2846 6.90487 39.55 5.52844 40.7235C4.8215 41.3258 4.08529 41.8775 3.3547 42.4025C2.54026 42.9875 1.78345 43.0205 0.95831 43.2162C0.792571 43.256 0.73586 43.6041 0.903511 43.6235C2.1838 43.7745 3.3023 43.0149 4.50578 42.0559C6.30632 40.6213 7.97684 38.9198 9.65761 37.1877C9.71891 37.1242 9.67175 37.0119 9.6075 37.0693Z" fill="url(#paint12_linear_2811_458)"/>
<path d="M10.2364 37.5808C8.87556 38.7961 7.53384 40.0614 6.15741 41.2349C5.45041 41.8372 4.7142 42.389 3.9836 42.914C3.16923 43.4989 2.41242 43.5319 1.58722 43.7277C1.42148 43.7675 1.36477 44.1156 1.53242 44.135C2.8127 44.2859 3.93121 43.5264 5.13468 42.5674C6.93523 41.1327 8.60581 39.4312 10.2865 37.6992C10.3478 37.6356 10.3007 37.5234 10.2364 37.5808Z" fill="url(#paint13_linear_2811_458)"/>
<path d="M8.01405 38.5858C6.97064 39.3948 5.94374 40.2392 4.88674 41.0186C4.34389 41.4186 3.77644 41.7825 3.21262 42.1279C2.58403 42.5127 1.98544 42.5141 1.33726 42.6271C1.20711 42.6502 1.17213 42.8913 1.30548 42.9097C2.32411 43.0516 3.18853 42.5536 4.11461 41.919C5.50012 40.9695 6.77506 39.8301 8.0571 38.6698C8.10384 38.6272 8.0633 38.5475 8.01405 38.5858Z" fill="url(#paint14_linear_2811_458)"/>
<path d="M10.7309 33.7942C9.24635 35.4653 7.77728 37.1993 6.28017 38.8181C5.51131 39.649 4.71668 40.4173 3.93 41.1507C3.05291 41.9679 2.27896 42.0711 1.42227 42.3889C1.25017 42.4534 1.16443 42.9053 1.33373 42.9168C2.62638 43.0079 3.82724 41.9419 5.13086 40.6128C7.08113 38.6243 8.92033 36.3033 10.7723 33.9423C10.8399 33.8557 10.801 33.7152 10.7309 33.7942Z" fill="url(#paint15_linear_2811_458)"/>
<path d="M10.2152 33.4214C8.73074 35.0927 7.26159 36.8266 5.76454 38.4453C4.99562 39.2763 4.20107 40.0446 3.41431 40.778C2.53728 41.5951 1.76334 41.6985 0.906651 42.0163C0.734555 42.0808 0.648734 42.5326 0.818038 42.5441C2.11077 42.6353 3.31169 41.5692 4.61524 40.2402C6.56544 38.2516 8.40478 35.9306 10.2567 33.5697C10.3243 33.4831 10.2853 33.3425 10.2152 33.4214Z" fill="url(#paint16_linear_2811_458)"/>
<path d="M8.15863 39.4853C7.11522 40.2943 6.08834 41.1388 5.03133 41.9181C4.48847 42.3181 3.92095 42.6821 3.35713 43.0275C2.72862 43.4123 2.12995 43.4137 1.48185 43.5268C1.35162 43.5497 1.31672 43.7909 1.45006 43.8092C2.4687 43.9512 3.33305 43.4532 4.25919 42.8185C5.64472 41.8691 6.91965 40.7297 8.20162 39.5694C8.24836 39.5268 8.20789 39.4471 8.15863 39.4853Z" fill="url(#paint17_linear_2811_458)"/>
<path d="M8.67029 39.8592C7.62696 40.6683 6.60006 41.5126 5.54313 42.292C5.0002 42.692 4.43268 43.0559 3.86893 43.4014C3.24034 43.7862 2.64175 43.7876 1.99357 43.9006C1.86342 43.9237 1.82844 44.1648 1.96179 44.1832C2.98043 44.3251 3.84485 43.8271 4.77092 43.1925C6.15644 42.2429 7.43138 41.1036 8.71335 39.9433C8.76016 39.9007 8.71961 39.821 8.67029 39.8592Z" fill="url(#paint18_linear_2811_458)"/>
<path d="M9.52186 39.1359C8.47845 39.9448 7.45163 40.7893 6.39464 41.5687C5.85171 41.9687 5.28419 42.3326 4.72043 42.6779C4.09192 43.0628 3.49332 43.0643 2.84515 43.1773C2.715 43.2003 2.67995 43.4415 2.81337 43.4598C3.832 43.6017 4.69635 43.1037 5.6225 42.4691C7.00795 41.5196 8.28288 40.3803 9.56492 39.2199C9.61165 39.1773 9.57118 39.0976 9.52186 39.1359Z" fill="url(#paint19_linear_2811_458)"/>
<path d="M12.2386 34.3442C10.7541 36.0155 9.28498 37.7494 7.78794 39.3681C7.01908 40.199 6.22446 40.9674 5.4377 41.7008C4.56068 42.5179 3.7868 42.6212 2.93004 42.9391C2.75795 43.0035 2.67219 43.4553 2.84149 43.4668C4.13422 43.558 5.33508 42.492 6.6387 41.1629C8.58889 39.1743 10.4282 36.8534 12.2802 34.4924C12.3477 34.4057 12.3087 34.2652 12.2386 34.3442Z" fill="url(#paint20_linear_2811_458)"/>
<path d="M11.723 33.9715C10.2385 35.6427 8.76944 37.3767 7.27233 38.9955C6.50348 39.8263 5.70884 40.5946 4.92216 41.328C4.04507 42.1452 3.27112 42.2485 2.41443 42.5663C2.24233 42.6307 2.15659 43.0826 2.32589 43.0942C3.61862 43.1853 4.8194 42.1193 6.12302 40.7902C8.07329 38.8017 9.91256 36.4807 11.7645 34.1197C11.8321 34.033 11.7931 33.8925 11.723 33.9715Z" fill="url(#paint21_linear_2811_458)"/>
<path d="M9.66255 40.0354C8.61914 40.8444 7.59224 41.6888 6.53531 42.4681C5.99246 42.8682 5.42494 43.2322 4.86112 43.5775C4.23253 43.9623 3.63394 43.9638 2.98576 44.0768C2.85561 44.0998 2.82063 44.3409 2.95405 44.3593C3.97262 44.5012 4.83704 44.0033 5.76311 43.3687C7.14863 42.4191 8.42356 41.2798 9.70553 40.1194C9.75235 40.0769 9.7118 39.9971 9.66255 40.0354Z" fill="url(#paint22_linear_2811_458)"/>
<path d="M10.1742 40.4093C9.1308 41.2183 8.1039 42.0626 7.0469 42.8421C6.50405 43.2421 5.93659 43.606 5.37277 43.9514C4.74426 44.3362 4.14559 44.3376 3.49741 44.4506C3.36726 44.4737 3.3323 44.7149 3.46564 44.7332C4.48427 44.8751 5.34869 44.3771 6.27476 43.7425C7.66021 42.793 8.93515 41.6537 10.2173 40.4933C10.264 40.4507 10.2235 40.371 10.1742 40.4093Z" fill="url(#paint23_linear_2811_458)"/>
<path d="M9.52971 40.2225C8.48638 41.0315 7.45941 41.876 6.40248 42.6553C5.85955 43.0553 5.29203 43.4192 4.72829 43.7647C4.0997 44.1495 3.50111 44.1509 2.85299 44.2639C2.72278 44.287 2.6878 44.5281 2.82122 44.5465C3.83979 44.6884 4.70413 44.1904 5.63034 43.5557C7.01579 42.6063 8.29073 41.4669 9.57276 40.3065C9.61951 40.264 9.57897 40.1843 9.52971 40.2225Z" fill="url(#paint24_linear_2811_458)"/>
<path d="M12.2465 35.4308C10.762 37.1021 9.29281 38.836 7.79577 40.4548C7.02685 41.2857 6.23229 42.0541 5.44553 42.7874C4.5685 43.6045 3.79463 43.7079 2.93787 44.0257C2.76578 44.0902 2.68002 44.542 2.84932 44.5535C4.14199 44.6447 5.34291 43.5787 6.64646 42.2496C8.59672 40.261 10.436 37.9401 12.288 35.5791C12.3555 35.4925 12.3166 35.3519 12.2465 35.4308Z" fill="url(#paint25_linear_2811_458)"/>
<path d="M9.6703 41.1221C8.62689 41.931 7.59999 42.7754 6.543 43.5548C6.00014 43.9549 5.43269 44.3188 4.86887 44.6642C4.24028 45.0489 3.64168 45.0504 2.99351 45.1634C2.86336 45.1864 2.82831 45.4276 2.96173 45.446C3.98036 45.5878 4.84478 45.0899 5.77086 44.4553C7.15637 43.5057 8.43131 42.3664 9.71336 41.2061C9.76009 41.1635 9.71954 41.0838 9.6703 41.1221Z" fill="url(#paint26_linear_2811_458)"/>
<path d="M10.182 41.4959C9.13862 42.3049 8.11166 43.1494 7.05473 43.9287C6.51188 44.3288 5.94436 44.6927 5.3806 45.038C4.75209 45.4229 4.15342 45.4243 3.50524 45.5373C3.37509 45.5603 3.34012 45.8016 3.47346 45.8199C4.49218 45.9618 5.35652 45.4638 6.28259 44.8292C7.66804 43.8797 8.94306 42.7404 10.2251 41.58C10.2718 41.5374 10.2314 41.4577 10.182 41.4959Z" fill="url(#paint27_linear_2811_458)"/>
<path d="M7.01014 37.0135C5.96673 37.8225 4.93984 38.6669 3.88284 39.4463C3.33999 39.8464 2.77253 40.2102 2.20871 40.5556C1.5802 40.9405 0.981528 40.9419 0.333351 41.0549C0.203199 41.0779 0.168232 41.3192 0.301572 41.3375C1.32028 41.4794 2.18463 40.9814 3.1107 40.3468C4.49622 39.3972 5.77123 38.2579 7.0532 37.0976C7.09994 37.0549 7.05946 36.9753 7.01014 37.0135Z" fill="url(#paint28_linear_2811_458)"/>
<path d="M9.72691 32.2219C8.24248 33.8931 6.77327 35.6271 5.27623 37.2458C4.50737 38.0767 3.71267 38.845 2.92599 39.5784C2.04896 40.3956 1.27501 40.4989 0.418332 40.8168C0.2463 40.8812 0.160479 41.333 0.329783 41.3445C1.62251 41.4357 2.82329 40.3696 4.12699 39.0406C6.07718 37.052 7.91646 34.7311 9.76841 32.37C9.836 32.2834 9.79701 32.1429 9.72691 32.2219Z" fill="url(#paint29_linear_2811_458)"/>
<path d="M7.1508 37.913C6.10741 38.7221 5.08051 39.5665 4.02358 40.3458C3.48065 40.7458 2.91313 41.1098 2.34938 41.4552C1.7208 41.84 1.1222 41.8415 0.474026 41.9545C0.343875 41.9775 0.308894 42.2186 0.442311 42.237C1.46088 42.3789 2.32523 41.8809 3.25138 41.2464C4.63689 40.2968 5.91183 39.1575 7.1938 37.9971C7.24061 37.9546 7.20006 37.8748 7.1508 37.913Z" fill="url(#paint30_linear_2811_458)"/>
<path d="M7.66639 38.287C6.62298 39.096 5.59609 39.9403 4.53916 40.7197C3.9963 41.1197 3.42878 41.4837 2.86496 41.8291C2.23637 42.2138 1.63778 42.2153 0.989602 42.3283C0.85945 42.3513 0.824471 42.5925 0.957823 42.6109C1.97646 42.7528 2.84088 42.2548 3.76695 41.6202C5.15247 40.6706 6.4274 39.5313 7.70945 38.371C7.75619 38.3284 7.71564 38.2487 7.66639 38.287Z" fill="url(#paint31_linear_2811_458)"/>
<path d="M7.66639 38.287C6.62298 39.096 5.59609 39.9403 4.53916 40.7197C3.9963 41.1197 3.42878 41.4837 2.86496 41.8291C2.23637 42.2138 1.63778 42.2153 0.989602 42.3283C0.85945 42.3513 0.824471 42.5925 0.957823 42.6109C1.97646 42.7528 2.84088 42.2548 3.76695 41.6202C5.15247 40.6706 6.4274 39.5313 7.70945 38.371C7.75619 38.3284 7.71564 38.2487 7.66639 38.287Z" fill="url(#paint32_linear_2811_458)"/>
<path d="M7.66639 38.287C6.62298 39.096 5.59609 39.9403 4.53916 40.7197C3.9963 41.1197 3.42878 41.4837 2.86496 41.8291C2.23637 42.2138 1.63778 42.2153 0.989602 42.3283C0.85945 42.3513 0.824471 42.5925 0.957823 42.6109C1.97646 42.7528 2.84088 42.2548 3.76695 41.6202C5.15247 40.6706 6.4274 39.5313 7.70945 38.371C7.75619 38.3284 7.71564 38.2487 7.66639 38.287Z" fill="url(#paint33_linear_2811_458)"/>
<path d="M7.66639 38.287C6.62298 39.096 5.59609 39.9403 4.53916 40.7197C3.9963 41.1197 3.42878 41.4837 2.86496 41.8291C2.23637 42.2138 1.63778 42.2153 0.989602 42.3283C0.85945 42.3513 0.824471 42.5925 0.957823 42.6109C1.97646 42.7528 2.84088 42.2548 3.76695 41.6202C5.15247 40.6706 6.4274 39.5313 7.70945 38.371C7.75619 38.3284 7.71564 38.2487 7.66639 38.287Z" fill="url(#paint34_linear_2811_458)"/>
<path d="M8.35779 36.9828C7.31446 37.7918 6.28756 38.6362 5.23062 39.4155C4.68777 39.8156 4.12025 40.1795 3.55643 40.5249C2.92784 40.9097 2.32925 40.9112 1.68107 41.0242C1.55092 41.0472 1.51594 41.2883 1.64936 41.3067C2.66793 41.4486 3.53235 40.9506 4.45842 40.316C5.84394 39.3665 7.11887 38.2271 8.40084 37.0668C8.44766 37.0242 8.40711 36.9445 8.35779 36.9828Z" fill="url(#paint35_linear_2811_458)"/>
<path d="M6.91639 35.8749C5.87298 36.6838 4.84609 37.5282 3.78909 38.3076C3.24624 38.7077 2.67878 39.0716 2.11496 39.417C1.48637 39.8017 0.887778 39.8032 0.239601 39.9162C0.10945 39.9392 0.0744055 40.1804 0.207823 40.1988C1.22646 40.3406 2.09088 39.8427 3.01695 39.2081C4.40247 38.2585 5.6774 37.1192 6.95945 35.9589C7.00619 35.9163 6.96564 35.8366 6.91639 35.8749Z" fill="url(#paint36_linear_2811_458)"/>
<path d="M9.63317 31.0832C8.14867 32.7544 6.67953 34.4884 5.18249 36.1072C4.41363 36.938 3.61893 37.7064 2.83225 38.4398C1.95523 39.2569 1.18127 39.3602 0.324518 39.678C0.152486 39.7424 0.066741 40.1943 0.236045 40.2059C1.52877 40.297 2.72956 39.231 4.03317 37.9019C5.98344 35.9134 7.82272 33.5924 9.67467 31.2314C9.74226 31.1447 9.70327 31.0042 9.63317 31.0832Z" fill="url(#paint37_linear_2811_458)"/>
<path d="M7.06097 36.7743C6.0175 37.5834 4.99068 38.4278 3.93367 39.2071C3.39082 39.6072 2.82329 39.9711 2.25947 40.3165C1.63096 40.7014 1.03229 40.7028 0.384192 40.8158C0.253964 40.8388 0.219061 41.08 0.352402 41.0983C1.37105 41.2403 2.23539 40.7422 3.16154 40.1077C4.54706 39.1581 5.82199 38.0188 7.10396 36.8585C7.1507 36.8158 7.11023 36.7362 7.06097 36.7743Z" fill="url(#paint38_linear_2811_458)"/>
<path d="M7.57263 37.1483C6.5293 37.9573 5.5024 38.8017 4.44547 39.5811C3.90254 39.981 3.33502 40.345 2.77127 40.6905C2.14269 41.0752 1.54409 41.0767 0.895917 41.1897C0.765766 41.2127 0.730786 41.4539 0.864139 41.4723C1.88277 41.6141 2.7472 41.1162 3.67327 40.4816C5.05879 39.532 6.33372 38.3927 7.61569 37.2323C7.6625 37.1898 7.62195 37.1101 7.57263 37.1483Z" fill="url(#paint39_linear_2811_458)"/>
<path d="M7.57263 37.1483C6.5293 37.9573 5.5024 38.8017 4.44547 39.5811C3.90254 39.981 3.33502 40.345 2.77127 40.6905C2.14269 41.0752 1.54409 41.0767 0.895917 41.1897C0.765766 41.2127 0.730786 41.4539 0.864139 41.4723C1.88277 41.6141 2.7472 41.1162 3.67327 40.4816C5.05879 39.532 6.33372 38.3927 7.61569 37.2323C7.6625 37.1898 7.62195 37.1101 7.57263 37.1483Z" fill="url(#paint40_linear_2811_458)"/>
<path d="M7.57263 37.1483C6.5293 37.9573 5.5024 38.8017 4.44547 39.5811C3.90254 39.981 3.33502 40.345 2.77127 40.6905C2.14269 41.0752 1.54409 41.0767 0.895917 41.1897C0.765766 41.2127 0.730786 41.4539 0.864139 41.4723C1.88277 41.6141 2.7472 41.1162 3.67327 40.4816C5.05879 39.532 6.33372 38.3927 7.61569 37.2323C7.6625 37.1898 7.62195 37.1101 7.57263 37.1483Z" fill="url(#paint41_linear_2811_458)"/>
<path d="M7.57263 37.1483C6.5293 37.9573 5.5024 38.8017 4.44547 39.5811C3.90254 39.981 3.33502 40.345 2.77127 40.6905C2.14269 41.0752 1.54409 41.0767 0.895917 41.1897C0.765766 41.2127 0.730786 41.4539 0.864139 41.4723C1.88277 41.6141 2.7472 41.1162 3.67327 40.4816C5.05879 39.532 6.33372 38.3927 7.61569 37.2323C7.6625 37.1898 7.62195 37.1101 7.57263 37.1483Z" fill="url(#paint42_linear_2811_458)"/>
<path d="M8.26795 35.8441C7.22455 36.6531 6.19772 37.4975 5.14079 38.2769C4.59786 38.6769 4.03034 39.0408 3.46652 39.3862C2.83801 39.771 2.23942 39.7725 1.59124 39.8855C1.46109 39.9085 1.42611 40.1497 1.55953 40.168C2.5781 40.3099 3.44244 39.8119 4.36859 39.1774C5.75411 38.2278 7.02904 37.0885 8.31101 35.9281C8.35775 35.8855 8.31728 35.8059 8.26795 35.8441Z" fill="url(#paint43_linear_2811_458)"/>
</g>
</g>
<defs>
<linearGradient id="paint0_linear_2811_458" x1="0.940493" y1="44.5197" x2="64.8782" y2="26.5968" gradientUnits="userSpaceOnUse">
<stop offset="0.0319975" stop-color="#3D0E21"/>
<stop offset="0.177042" stop-color="#C04989"/>
<stop offset="0.311" stop-color="#D24389"/>
<stop offset="0.511" stop-color="#DE49BD"/>
<stop offset="1" stop-color="#FDFDFD"/>
</linearGradient>
<radialGradient id="paint1_radial_2811_458" cx="0" cy="0" r="1" gradientUnits="userSpaceOnUse" gradientTransform="translate(-0.709714 45.8892) rotate(-30.5279) scale(48.813 59.9171)">
<stop stop-color="#30000D"/>
<stop offset="0.375115" stop-color="#9C3468"/>
<stop offset="0.544689" stop-color="#BF4586"/>
<stop offset="1" stop-color="#E3C6CE" stop-opacity="0"/>
</radialGradient>
<linearGradient id="paint2_linear_2811_458" x1="28.6165" y1="42.5585" x2="50.6525" y2="30.4869" gradientUnits="userSpaceOnUse">
<stop stop-color="#DF52C0"/>
<stop offset="1" stop-color="#EBD5EC" stop-opacity="0"/>
</linearGradient>
<linearGradient id="paint3_linear_2811_458" x1="4.23739" y1="42.1885" x2="25.9289" y2="36.4167" gradientUnits="userSpaceOnUse">
<stop stop-color="#75354F"/>
<stop offset="0.0001" stop-color="#4B0D23"/>
<stop offset="1" stop-color="#EB4BB1"/>
</linearGradient>
<linearGradient id="paint4_linear_2811_458" x1="1.76643" y1="42.5585" x2="24.8287" y2="30.861" gradientUnits="userSpaceOnUse">
<stop stop-color="#832A4F"/>
<stop offset="1" stop-color="#B33F7C"/>
</linearGradient>
<linearGradient id="paint5_linear_2811_458" x1="2.82586" y1="42.1884" x2="22.0144" y2="24.5726" gradientUnits="userSpaceOnUse">
<stop stop-color="#6B2642"/>
<stop offset="1" stop-color="#C75594"/>
</linearGradient>
<linearGradient id="paint6_linear_2811_458" x1="0.940492" y1="44.5197" x2="61" y2="6.5" gradientUnits="userSpaceOnUse">
<stop offset="0.0319975" stop-color="#AD5A41"/>
<stop offset="0.174571" stop-color="#C0806A"/>
<stop offset="1" stop-color="#FEF8EC"/>
</linearGradient>
<radialGradient id="paint7_radial_2811_458" cx="0" cy="0" r="1" gradientUnits="userSpaceOnUse" gradientTransform="translate(-0.709714 45.8892) rotate(-31.086) scale(65.6354 80.5663)">
<stop stop-color="#AD5B47"/>
<stop offset="0.186" stop-color="#C8907C"/>
<stop offset="0.544689" stop-color="#D9B3A4"/>
<stop offset="1" stop-color="#F6EDEA"/>
</radialGradient>
<linearGradient id="paint8_linear_2811_458" x1="46.5" y1="15.5" x2="4.40135" y2="40.8128" gradientUnits="userSpaceOnUse">
<stop stop-color="#B1607A"/>
<stop offset="0.264099" stop-color="#B1607A" stop-opacity="0.735901"/>
<stop offset="1" stop-color="#B1607A" stop-opacity="0"/>
</linearGradient>
<linearGradient id="paint9_linear_2811_458" x1="0.822732" y1="43.5056" x2="8.35045" y2="40.287" gradientUnits="userSpaceOnUse">
<stop stop-color="#711302"/>
<stop offset="1" stop-color="#C9A992"/>
</linearGradient>
<linearGradient id="paint10_linear_2811_458" x1="0.737333" y1="42.7106" x2="12.0324" y2="37.2449" gradientUnits="userSpaceOnUse">
<stop stop-color="#711302"/>
<stop offset="1" stop-color="#C9A992"/>
</linearGradient>
<linearGradient id="paint11_linear_2811_458" x1="0.737333" y1="42.7106" x2="12.0324" y2="37.2449" gradientUnits="userSpaceOnUse">
<stop stop-color="#711302"/>
<stop offset="1" stop-color="#C9A992"/>
</linearGradient>
<linearGradient id="paint12_linear_2811_458" x1="0.873977" y1="43.9885" x2="12.1691" y2="38.5228" gradientUnits="userSpaceOnUse">
<stop stop-color="#711302"/>
<stop offset="1" stop-color="#C9A992"/>
</linearGradient>
<linearGradient id="paint13_linear_2811_458" x1="1.50288" y1="44.5" x2="12.798" y2="39.0343" gradientUnits="userSpaceOnUse">
<stop stop-color="#711302"/>
<stop offset="1" stop-color="#C9A992"/>
</linearGradient>
<linearGradient id="paint14_linear_2811_458" x1="1.29255" y1="43.1635" x2="9.39114" y2="38.4746" gradientUnits="userSpaceOnUse">
<stop stop-color="#711302"/>
<stop offset="1" stop-color="#C9A992"/>
</linearGradient>
<linearGradient id="paint15_linear_2811_458" x1="1.27432" y1="43.3882" x2="14.4107" y2="39.0369" gradientUnits="userSpaceOnUse">
<stop stop-color="#711302"/>
<stop offset="1" stop-color="#C9A992"/>
</linearGradient>
<linearGradient id="paint16_linear_2811_458" x1="0.758706" y1="43.0156" x2="13.8951" y2="38.6643" gradientUnits="userSpaceOnUse">
<stop stop-color="#711302"/>
<stop offset="1" stop-color="#C9A992"/>
</linearGradient>
<linearGradient id="paint17_linear_2811_458" x1="1.43706" y1="44.063" x2="9.53565" y2="39.3741" gradientUnits="userSpaceOnUse">
<stop stop-color="#711302"/>
<stop offset="1" stop-color="#C9A992"/>
</linearGradient>
<linearGradient id="paint18_linear_2811_458" x1="1.94886" y1="44.437" x2="10.0474" y2="39.748" gradientUnits="userSpaceOnUse">
<stop stop-color="#711302"/>
<stop offset="1" stop-color="#C9A992"/>
</linearGradient>
<linearGradient id="paint19_linear_2811_458" x1="2.80043" y1="43.7136" x2="10.8989" y2="39.0247" gradientUnits="userSpaceOnUse">
<stop stop-color="#711302"/>
<stop offset="1" stop-color="#C9A992"/>
</linearGradient>
<linearGradient id="paint20_linear_2811_458" x1="2.7821" y1="43.9384" x2="15.9186" y2="39.587" gradientUnits="userSpaceOnUse">
<stop stop-color="#711302"/>
<stop offset="1" stop-color="#C9A992"/>
</linearGradient>
<linearGradient id="paint21_linear_2811_458" x1="2.26648" y1="43.5656" x2="15.4029" y2="39.2143" gradientUnits="userSpaceOnUse">
<stop stop-color="#711302"/>
<stop offset="1" stop-color="#C9A992"/>
</linearGradient>
<linearGradient id="paint22_linear_2811_458" x1="2.94105" y1="44.6131" x2="11.0396" y2="39.9242" gradientUnits="userSpaceOnUse">
<stop stop-color="#711302"/>
<stop offset="1" stop-color="#C9A992"/>
</linearGradient>
<linearGradient id="paint23_linear_2811_458" x1="3.4527" y1="44.987" x2="11.5513" y2="40.298" gradientUnits="userSpaceOnUse">
<stop stop-color="#711302"/>
<stop offset="1" stop-color="#C9A992"/>
</linearGradient>
<linearGradient id="paint24_linear_2811_458" x1="2.80822" y1="44.8003" x2="10.9067" y2="40.1113" gradientUnits="userSpaceOnUse">
<stop stop-color="#711302"/>
<stop offset="1" stop-color="#C9A992"/>
</linearGradient>
<linearGradient id="paint25_linear_2811_458" x1="2.78993" y1="45.025" x2="15.9264" y2="40.6736" gradientUnits="userSpaceOnUse">
<stop stop-color="#711302"/>
<stop offset="1" stop-color="#C9A992"/>
</linearGradient>
<linearGradient id="paint26_linear_2811_458" x1="2.94879" y1="45.6997" x2="11.0474" y2="41.0108" gradientUnits="userSpaceOnUse">
<stop stop-color="#711302"/>
<stop offset="1" stop-color="#C9A992"/>
</linearGradient>
<linearGradient id="paint27_linear_2811_458" x1="3.46047" y1="46.0737" x2="11.5591" y2="41.3848" gradientUnits="userSpaceOnUse">
<stop stop-color="#711302"/>
<stop offset="1" stop-color="#C9A992"/>
</linearGradient>
<linearGradient id="paint28_linear_2811_458" x1="0.288638" y1="41.5912" x2="8.38723" y2="36.9023" gradientUnits="userSpaceOnUse">
<stop stop-color="#711302"/>
<stop offset="1" stop-color="#C9A992"/>
</linearGradient>
<linearGradient id="paint29_linear_2811_458" x1="0.270374" y1="41.8159" x2="13.4068" y2="37.4646" gradientUnits="userSpaceOnUse">
<stop stop-color="#711302"/>
<stop offset="1" stop-color="#C9A992"/>
</linearGradient>
<linearGradient id="paint30_linear_2811_458" x1="0.429313" y1="42.4908" x2="8.52783" y2="37.8018" gradientUnits="userSpaceOnUse">
<stop stop-color="#711302"/>
<stop offset="1" stop-color="#C9A992"/>
</linearGradient>
<linearGradient id="paint31_linear_2811_458" x1="0.944889" y1="42.8647" x2="9.04348" y2="38.1757" gradientUnits="userSpaceOnUse">
<stop stop-color="#711302"/>
<stop offset="1" stop-color="#C9A992"/>
</linearGradient>
<linearGradient id="paint32_linear_2811_458" x1="0.944889" y1="42.8647" x2="9.04348" y2="38.1757" gradientUnits="userSpaceOnUse">
<stop stop-color="#711302"/>
<stop offset="1" stop-color="#C9A992"/>
</linearGradient>
<linearGradient id="paint33_linear_2811_458" x1="0.944889" y1="42.8647" x2="9.04348" y2="38.1757" gradientUnits="userSpaceOnUse">
<stop stop-color="#711302"/>
<stop offset="1" stop-color="#C9A992"/>
</linearGradient>
<linearGradient id="paint34_linear_2811_458" x1="0.944889" y1="42.8647" x2="9.04348" y2="38.1757" gradientUnits="userSpaceOnUse">
<stop stop-color="#711302"/>
<stop offset="1" stop-color="#C9A992"/>
</linearGradient>
<linearGradient id="paint35_linear_2811_458" x1="1.63636" y1="41.5605" x2="9.73495" y2="36.8716" gradientUnits="userSpaceOnUse">
<stop stop-color="#711302"/>
<stop offset="1" stop-color="#C9A992"/>
</linearGradient>
<linearGradient id="paint36_linear_2811_458" x1="0.194888" y1="40.4525" x2="8.29348" y2="35.7636" gradientUnits="userSpaceOnUse">
<stop stop-color="#711302"/>
<stop offset="1" stop-color="#C9A992"/>
</linearGradient>
<linearGradient id="paint37_linear_2811_458" x1="0.176636" y1="40.6773" x2="13.313" y2="36.326" gradientUnits="userSpaceOnUse">
<stop stop-color="#711302"/>
<stop offset="1" stop-color="#C9A992"/>
</linearGradient>
<linearGradient id="paint38_linear_2811_458" x1="0.339403" y1="41.3521" x2="8.438" y2="36.6632" gradientUnits="userSpaceOnUse">
<stop stop-color="#711302"/>
<stop offset="1" stop-color="#C9A992"/>
</linearGradient>
<linearGradient id="paint39_linear_2811_458" x1="0.851205" y1="41.726" x2="8.94972" y2="37.037" gradientUnits="userSpaceOnUse">
<stop stop-color="#711302"/>
<stop offset="1" stop-color="#C9A992"/>
</linearGradient>
<linearGradient id="paint40_linear_2811_458" x1="0.851205" y1="41.726" x2="8.94972" y2="37.037" gradientUnits="userSpaceOnUse">
<stop stop-color="#711302"/>
<stop offset="1" stop-color="#C9A992"/>
</linearGradient>
<linearGradient id="paint41_linear_2811_458" x1="0.851205" y1="41.726" x2="8.94972" y2="37.037" gradientUnits="userSpaceOnUse">
<stop stop-color="#711302"/>
<stop offset="1" stop-color="#C9A992"/>
</linearGradient>
<linearGradient id="paint42_linear_2811_458" x1="0.851205" y1="41.726" x2="8.94972" y2="37.037" gradientUnits="userSpaceOnUse">
<stop stop-color="#711302"/>
<stop offset="1" stop-color="#C9A992"/>
</linearGradient>
<linearGradient id="paint43_linear_2811_458" x1="1.54653" y1="40.4218" x2="9.64504" y2="35.7329" gradientUnits="userSpaceOnUse">
<stop stop-color="#711302"/>
<stop offset="1" stop-color="#C9A992"/>
</linearGradient>
<clipPath id="clip0_2811_458">
<rect width="53" height="46" fill="white"/>
</clipPath>
<clipPath id="clip1_2811_458">
<rect width="53" height="46" fill="white"/>
</clipPath>
</defs>
</svg>
