<svg width="60" height="60" viewBox="0 0 60 60" fill="none" xmlns="http://www.w3.org/2000/svg">
<path d="M-8.9407e-07 53.0003C1.44436 43.4785 9.82754 22.9722 18.5434 15.1804C27.3741 7.69843 35.9392 -0.249817 46.2364 0.00601674C51.5184 0.369011 56.329 8.08074 55.8102 18.6443C59.749 22.9654 61.5787 30.7196 58.3196 38.1359C55.3501 45.1207 49.3465 51 44.5024 55.1599C39.936 59.3402 35.7656 59.0534 30.4842 58.6895C24.9126 58.7551 19.2937 60.6174 13.746 59.7872C9.04372 58.565 5.16357 61.2643 0.774834 58.7165L-8.9407e-07 53.0003Z" fill="url(#paint0_linear_2776_8148)"/>
<path d="M55.3108 18.6197L55.3006 18.8274L55.4407 18.9811C59.2438 23.1535 61.0429 30.6961 57.8619 37.9348L57.8618 37.9347L57.8595 37.9403C54.9381 44.8118 49.0123 50.6279 44.1767 54.7806L44.1707 54.7858L44.1648 54.7911C41.95 56.8187 39.8519 57.7482 37.6737 58.1365C35.4718 58.5291 33.1729 58.3736 30.5186 58.1907L30.4985 58.1893L30.4783 58.1895C28.2132 58.2162 25.9354 58.5361 23.695 58.8507C23.141 58.9285 22.5892 59.006 22.0405 59.0786C19.2612 59.4466 16.5372 59.6952 13.8456 59.2965C11.7353 58.7539 9.77343 58.9655 7.9575 59.1614C7.66616 59.1928 7.37857 59.2238 7.09474 59.2512C5.08567 59.4454 3.21272 59.4746 1.23685 58.4026L0.505157 53.0046C1.23118 48.304 3.66032 40.8828 6.99884 33.6512C10.3565 26.378 14.5946 19.3837 18.8717 15.5575C19.4619 15.0574 20.0501 14.556 20.6369 14.0558C24.4536 10.8023 28.2135 7.5972 32.1088 5.1131C36.5936 2.25303 41.2065 0.38414 46.2128 0.505589C48.6112 0.67543 51.0064 2.52768 52.7597 5.73952C54.5072 8.94063 55.5664 13.4154 55.3108 18.6197Z" stroke="#B1607A" stroke-opacity="0.1"/>
<path d="M1.60349 52.4876C2.79476 44.634 9.70964 27.7229 16.8979 21.2952C24.1814 15.1243 31.2452 8.56727 39.7385 8.78159C44.0943 9.0799 48.0624 15.441 47.6346 24.1529C50.883 27.7152 52.3919 34.112 49.7037 40.2269C47.2547 45.9875 42.3035 50.8368 38.3079 54.2679C34.542 57.7153 31.1028 57.4788 26.7464 57.1805C22.1507 57.2356 17.5166 58.7696 12.9406 58.0851C9.06225 57.0772 5.86239 59.3044 2.2425 57.2017L1.60349 52.4876Z" fill="url(#paint1_radial_2776_8148)"/>
<path d="M47.1352 24.1283L47.125 24.3361L47.2652 24.4897C50.3778 27.9033 51.8561 34.0884 49.2459 40.0257L49.2459 40.0257L49.2435 40.0313C46.8427 45.6787 41.9693 50.4648 37.9822 53.8885L37.9762 53.8937L37.9703 53.8991C36.1557 55.5602 34.4406 56.3191 32.6608 56.6366C30.8574 56.9584 28.9724 56.8318 26.7806 56.6817L26.7605 56.6803L26.7404 56.6806C24.8669 56.703 22.9822 56.9675 21.1348 57.2267C20.6775 57.2908 20.2225 57.3547 19.7706 57.4145C17.4809 57.7173 15.246 57.9203 13.0401 57.5944C11.2849 57.1442 9.65144 57.3207 8.15579 57.4823C7.91579 57.5082 7.67934 57.5338 7.44651 57.5563C5.80748 57.7148 4.29601 57.7374 2.7044 56.8869L2.10866 52.4921C2.70812 48.6254 4.70692 42.5201 7.45578 36.5663C10.2238 30.571 13.7129 24.8165 17.2263 21.6724C17.7144 21.2588 18.2007 20.8442 18.6857 20.4308C21.8329 17.748 24.9275 15.11 28.1334 13.0655C31.824 10.712 35.6105 9.1805 39.7148 9.28115C41.6502 9.41861 43.6032 10.917 45.0416 13.5517C46.474 16.1756 47.3453 19.8499 47.1352 24.1283Z" stroke="#B1607A" stroke-opacity="0.1"/>
<path d="M34.615 54.5237C41.0279 53.2986 47.4569 51.7153 52.0544 43.7584C53.7597 40.8072 55.913 38.0355 56.6119 34.0367C57.3861 29.6122 54.2682 26.1117 53.4593 22.4306C53.3073 21.7374 52.6516 22.0994 52.7922 22.7964C53.5802 26.6938 55.9765 29.2348 55.7228 33.7664C55.5265 37.2622 52.0335 41.5245 50.64 43.9061C46.396 51.1544 40.0789 51.3234 34.4929 53.5554C34.1519 53.6935 34.2703 54.5894 34.615 54.5237Z" fill="url(#paint2_linear_2776_8148)"/>
<path d="M56.2342 32.6835C56.1997 31.7011 56.0463 30.8094 55.8251 29.9736C56.0822 30.8548 56.2414 31.7518 56.2342 32.6835ZM53.2938 22.5013C53.2938 22.5013 53.2935 22.5019 53.2926 22.503C53.2933 22.5018 53.2938 22.5012 53.2938 22.5013ZM52.9496 22.4709C52.9496 22.4709 52.95 22.4715 52.9508 22.473C52.9499 22.4717 52.9495 22.471 52.9496 22.4709ZM51.0715 44.1588L51.0715 44.1586C51.3878 43.6181 51.8174 42.9745 52.3043 42.2451C52.3394 42.1925 52.3747 42.1396 52.4104 42.0861C52.7082 41.6397 53.0232 41.1658 53.3389 40.6732C53.1348 41.0115 52.9278 41.3479 52.7204 41.6848C52.3502 42.2864 51.9789 42.8897 51.6215 43.5083C47.2028 51.1557 41.0818 52.768 34.7893 53.9811C34.7894 53.9793 34.7895 53.9775 34.7895 53.9756C36.0117 53.4941 37.2702 53.109 38.5551 52.7158C38.6773 52.6785 38.7997 52.641 38.9223 52.6034C40.3659 52.1606 41.8368 51.6964 43.27 51.07C46.1555 49.8089 48.8863 47.8908 51.0715 44.1588Z" stroke="#B1607A" stroke-opacity="0.1"/>
<path d="M30.2898 42.3306C28.7551 44.4333 26.7633 44.9285 25.0084 46.3737C22.5624 48.3866 20.3558 51.027 17.5969 51.8244C15.7409 52.3622 13.9166 53.01 12.0641 53.567C9.87665 54.2283 7.51744 53.7418 5.29884 54.0517C5.06011 54.0864 5.0661 54.5903 5.27611 54.6907C9.39859 56.6679 14.388 54.0574 18.4615 52.8623C20.6675 52.2174 22.6785 49.8724 24.5536 48.0439C26.5389 46.1083 28.7222 45.2066 30.3807 42.4977C30.4358 42.4069 30.3502 42.2476 30.2898 42.3306Z" fill="url(#paint3_linear_2776_8148)"/>
<path d="M23.6609 48.2245C23.5181 48.3676 23.3754 48.5116 23.2326 48.6556C22.5994 49.2946 21.964 49.9358 21.3005 50.5223C20.3035 51.4037 19.3164 52.0914 18.3212 52.3824L18.3207 52.3825C17.4778 52.6298 16.5954 52.9371 15.7041 53.2475C15.5028 53.3176 15.301 53.3879 15.0992 53.4577C13.9959 53.839 12.8802 54.2089 11.7686 54.4804C9.75376 54.9725 7.81227 55.1255 6.05004 54.4758C6.70163 54.4287 7.36715 54.4333 8.05715 54.4381C8.26676 54.4396 8.47863 54.4411 8.69306 54.4411C9.83919 54.4413 11.0391 54.3991 12.2081 54.0458C13.0539 53.7915 13.8936 53.5185 14.7269 53.2475C14.8125 53.2196 14.8981 53.1918 14.9837 53.164C15.9034 52.8652 16.8166 52.5711 17.736 52.3047C19.2176 51.8764 20.5239 50.9621 21.7418 49.9375C22.3153 49.4551 22.879 48.9395 23.4353 48.4307C23.4715 48.3976 23.5077 48.3645 23.5438 48.3315C23.5829 48.2957 23.6219 48.2601 23.6609 48.2245Z" stroke="#B1607A" stroke-opacity="0.1"/>
<path d="M18.1307 46.281C15.735 47.7214 13.2052 49.0788 10.7599 50.302C8.14697 51.6091 5.67228 53.6983 2.86014 52.6933C2.46046 52.5504 2.3402 53.4222 2.65133 53.7243C4.39665 55.4235 7.10049 53.8132 8.83145 52.7416C11.9655 50.8001 15.1713 48.9755 18.2348 46.7734C18.4215 46.6382 18.3281 46.1632 18.1307 46.281Z" fill="url(#paint4_linear_2776_8148)"/>
<path d="M10.9835 50.7492C10.4543 51.0139 9.93174 51.311 9.39734 51.6149C9.28708 51.6776 9.17631 51.7406 9.06487 51.8036C8.42054 52.1681 7.75811 52.5321 7.08296 52.8237C5.8097 53.3736 4.44252 53.6869 2.97727 53.257C2.97896 53.2754 2.98163 53.2934 2.98532 53.3106C2.99367 53.3494 3.0034 53.3673 3.00572 53.3715C3.69379 54.037 4.58348 54.0907 5.60668 53.792C6.64217 53.4898 7.69571 52.8566 8.56814 52.3165L10.9835 50.7492ZM10.9835 50.7492C11.2834 50.5992 11.5846 50.4471 11.8867 50.2931L10.9835 50.7492Z" stroke="#B1607A" stroke-opacity="0.1"/>
<path d="M18.8924 31.183C16.535 35.2483 14.2536 39.4276 11.8334 43.3973C10.59 45.4353 9.24679 47.3652 7.89936 49.2226C6.39696 51.2925 4.67317 51.9142 2.89614 52.9994C2.53954 53.2185 2.63228 54.1462 3.03136 54.0767C6.08044 53.5525 8.17159 50.8214 10.331 47.5216C13.5613 42.5845 16.3208 37.0595 19.0839 31.4494C19.1844 31.2438 19.0037 30.9909 18.8924 31.183Z" fill="url(#paint5_linear_2776_8148)"/>
<path d="M8.30408 49.5162C8.82971 48.7917 9.35548 48.055 9.87554 47.3044C8.81062 48.929 7.78332 50.3769 6.66323 51.4845C5.59736 52.5385 4.46981 53.2618 3.17402 53.54C3.17335 53.4918 3.1795 53.4472 3.18939 53.4144C3.19055 53.4105 3.19166 53.4072 3.19269 53.4042C3.53727 53.195 3.88883 52.9993 4.24353 52.8018C5.62589 52.0322 7.0557 51.2361 8.304 49.5163L8.30408 49.5162ZM3.2001 53.3872C3.20013 53.3872 3.19968 53.3881 3.19862 53.3897C3.19953 53.3879 3.20006 53.3871 3.2001 53.3872Z" stroke="#B1607A" stroke-opacity="0.1"/>
<defs>
<linearGradient id="paint0_linear_2776_8148" x1="1.06471" y1="58.0692" x2="74.7718" y2="40.1366" gradientUnits="userSpaceOnUse">
<stop offset="0.0319975" stop-color="#3D0E21"/>
<stop offset="0.177042" stop-color="#C04989"/>
<stop offset="0.311" stop-color="#D24389"/>
<stop offset="0.511" stop-color="#DE49BD"/>
<stop offset="1" stop-color="#FDFDFD"/>
</linearGradient>
<radialGradient id="paint1_radial_2776_8148" cx="0" cy="0" r="1" gradientUnits="userSpaceOnUse" gradientTransform="translate(-0.800788 59.8555) rotate(-34.1937) scale(57.5475 75.0462)">
<stop stop-color="#30000D"/>
<stop offset="0.375115" stop-color="#9C3468"/>
<stop offset="0.544689" stop-color="#BF4586"/>
<stop offset="1" stop-color="#E3C6CE" stop-opacity="0"/>
</radialGradient>
<linearGradient id="paint2_linear_2776_8148" x1="32.4" y1="55.5111" x2="58.8528" y2="42.9338" gradientUnits="userSpaceOnUse">
<stop stop-color="#DF52C0"/>
<stop offset="1" stop-color="#EBD5EC" stop-opacity="0"/>
</linearGradient>
<linearGradient id="paint3_linear_2776_8148" x1="4.79531" y1="55.0284" x2="29.759" y2="49.2633" gradientUnits="userSpaceOnUse">
<stop stop-color="#75354F"/>
<stop offset="0.0001" stop-color="#4B0D23"/>
<stop offset="1" stop-color="#EB4BB1"/>
</linearGradient>
<linearGradient id="paint4_linear_2776_8148" x1="1.99844" y1="55.5111" x2="29.4947" y2="43.4065" gradientUnits="userSpaceOnUse">
<stop stop-color="#832A4F"/>
<stop offset="1" stop-color="#B33F7C"/>
</linearGradient>
<linearGradient id="paint5_linear_2776_8148" x1="3.19766" y1="55.0284" x2="27.6832" y2="35.5186" gradientUnits="userSpaceOnUse">
<stop stop-color="#6B2642"/>
<stop offset="1" stop-color="#C75594"/>
</linearGradient>
</defs>
</svg>
