<svg width="78" height="80" viewBox="0 0 78 80" fill="none" xmlns="http://www.w3.org/2000/svg">
<path d="M5.55675 24.2918C13.8379 21.1785 34.3085 19.0398 44.8521 23.0167C55.207 27.2351 65.7993 31.0097 70.7448 40.0447C73.0977 44.7854 69.3809 52.486 60.7356 56.8784C59.2746 62.27 54.0338 67.4086 46.5168 67.9852C39.4871 68.6149 31.818 66.1103 26.0935 63.8219C20.4918 61.7832 18.6343 58.0401 16.2825 53.2995C13.4445 48.5044 9.15669 44.4918 7.04194 39.3069C5.66107 34.6744 1.57815 32.5513 1.40631 27.5828L5.55675 24.2918Z" fill="url(#paint0_linear_2777_8162)"/>
<path d="M6.76557 25.4455C13.5959 22.8776 30.4783 21.1152 39.1751 24.3944C47.7156 27.8737 56.4529 30.9859 60.5294 38.4395C62.4705 42.3485 59.4048 48.7004 52.2749 52.3229C51.0711 56.7688 46.7474 61.0074 40.5489 61.482C34.7513 62.0014 28.4261 59.9362 23.7046 58.0484C19.0848 56.3672 17.553 53.2803 15.6116 49.3708C13.27 45.416 9.73516 42.1059 7.99053 37.8293C6.85147 34.0086 3.48349 32.2582 3.34276 28.1595L6.76557 25.4455Z" fill="url(#paint1_radial_2777_8162)"/>
<path d="M21.654 54.9675C25.833 59.9597 30.3044 64.8017 38.9198 65.1364C42.1153 65.2605 45.3923 65.855 48.9162 64.6275C52.8157 63.2701 54.0357 58.9655 56.5535 56.5778C57.0278 56.1285 56.4125 55.7265 55.9295 56.1677C53.2295 58.6365 52.4105 61.8763 48.6862 63.7336C45.8129 65.1659 40.6828 64.0944 38.0953 63.9792C30.2192 63.626 26.9265 58.2326 22.3616 54.418C22.0815 54.1859 21.4295 54.6991 21.654 54.9675Z" fill="url(#paint2_linear_2777_8162)"/>
<path d="M29.175 45.6367C26.7384 45.2713 25.3493 43.7733 23.3246 42.9159C20.5037 41.7202 17.3042 41.0194 15.2918 38.9956C13.9369 37.6347 12.5105 36.3517 11.1421 35.0028C9.52332 33.4115 8.72997 31.1453 7.37466 29.366C7.2277 29.1752 6.83065 29.4113 6.85595 29.6392C7.3476 34.1156 11.9147 37.2401 14.9002 40.22C16.5151 41.8349 19.3822 42.5017 21.7713 43.2876C24.3006 44.1197 26.108 45.5972 29.0878 45.792C29.1874 45.7981 29.2711 45.6509 29.175 45.6367Z" fill="url(#paint3_linear_2777_8162)"/>
<path d="M19.9569 36.9171C17.6156 35.5026 15.2731 33.9339 13.0794 32.3768C10.7353 30.7131 7.83946 29.5274 7.23121 26.6314C7.1448 26.2198 6.39261 26.5152 6.3083 26.9232C5.8321 29.2134 8.46237 30.817 10.1786 31.8249C13.2868 33.6492 16.3382 35.5892 19.6181 37.233C19.8187 37.3327 20.1491 37.0341 19.9569 36.9171Z" fill="url(#paint4_linear_2777_8162)"/>
<path d="M32.3247 30.6536C27.9187 30.4753 23.4602 30.415 19.0987 30.1385C16.8592 29.9958 14.6555 29.717 12.5073 29.4014C10.1129 29.049 8.75741 27.8411 7.00746 26.7995C6.65519 26.5911 5.96507 27.0967 6.2198 27.4104C8.16049 29.8107 11.3742 30.37 15.0734 30.7276C20.608 31.2624 26.3738 31.1198 32.2089 30.9415C32.4224 30.9343 32.5328 30.6619 32.3247 30.6536Z" fill="url(#paint5_linear_2777_8162)"/>
<defs>
<linearGradient id="paint0_linear_2777_8162" x1="2.06515" y1="27.5371" x2="49.1971" y2="71.228" gradientUnits="userSpaceOnUse">
<stop offset="0.101" stop-color="#601735"/>
<stop offset="0.256" stop-color="#C04989"/>
<stop offset="0.311" stop-color="#D24389"/>
<stop offset="0.511" stop-color="#DE49BD"/>
<stop offset="1" stop-color="#FDFDFD"/>
</linearGradient>
<radialGradient id="paint1_radial_2777_8162" cx="0" cy="0" r="1" gradientUnits="userSpaceOnUse" gradientTransform="translate(-0.285564 26.7403) rotate(26.3398) scale(71.6095 89.6683)">
<stop stop-color="#30000D"/>
<stop offset="0.261" stop-color="#9C3468"/>
<stop offset="0.381" stop-color="#BF4586"/>
<stop offset="1" stop-color="white" stop-opacity="0"/>
</radialGradient>
<linearGradient id="paint2_linear_2777_8162" x1="19.7626" y1="53.5018" x2="44.0212" y2="69.0068" gradientUnits="userSpaceOnUse">
<stop stop-color="#DF52C0"/>
<stop offset="1" stop-color="#EBD5EC" stop-opacity="0"/>
</linearGradient>
<linearGradient id="paint3_linear_2777_8162" x1="6.34748" y1="29.3776" x2="24.105" y2="47.6761" gradientUnits="userSpaceOnUse">
<stop stop-color="#75354F"/>
<stop offset="0.0001" stop-color="#4B0D23"/>
<stop offset="1" stop-color="#EB4BB1"/>
</linearGradient>
<linearGradient id="paint4_linear_2777_8162" x1="4.56341" y1="27.1767" x2="28.9935" y2="43.8715" gradientUnits="userSpaceOnUse">
<stop stop-color="#832A4F"/>
<stop offset="1" stop-color="#B33F7C"/>
</linearGradient>
<linearGradient id="paint5_linear_2777_8162" x1="5.54745" y1="27.9906" x2="34.1136" y2="37.8278" gradientUnits="userSpaceOnUse">
<stop stop-color="#6B2642"/>
<stop offset="1" stop-color="#C75594"/>
</linearGradient>
</defs>
</svg>
