<svg width="40" height="40" viewBox="0 0 40 40" fill="none" xmlns="http://www.w3.org/2000/svg">
<path d="M20 40C31.0457 40 40 31.0457 40 20C40 8.9543 31.0457 0 20 0C8.9543 0 0 8.9543 0 20C0 31.0457 8.9543 40 20 40Z" fill="#66ACDD"/>
<path d="M12.4819 22.6411L14.6237 29.1923C14.7759 29.658 15.3491 29.8241 15.7268 29.5123L22.1233 24.2319C22.1233 24.2319 15.3261 21.5806 15.3261 21.7252C15.3261 21.8698 12.4819 22.6411 12.4819 22.6411Z" fill="#B5D1DB"/>
<path d="M29.3584 10.0501C25.1812 11.7023 11.6979 17.2274 6.59469 19.3208C5.92085 19.5971 5.96129 20.5637 6.65508 20.7848L12.4817 22.6409L14.6168 29.1712C14.7026 29.4338 14.9195 29.6031 15.1614 29.6487C15.3577 29.6856 15.6475 24.3602 15.6475 24.3602C15.6475 24.3602 21.7728 28.9028 24.6783 31.0483C25.3941 31.5768 26.4162 31.1793 26.5857 30.3059C27.4511 25.8453 29.6153 14.6917 30.355 10.8788C30.4664 10.3056 29.9015 9.83533 29.3584 10.0501Z" fill="white"/>
<path d="M15.1613 29.6491C15.3576 29.686 15.6472 24.3606 15.6472 24.3606L25.7102 14.9084C25.7782 14.8445 25.697 14.7368 25.6168 14.7846L12.4814 22.6413L14.6165 29.1716C14.7025 29.4342 14.9193 29.6035 15.1613 29.6491Z" fill="#D6E2EA"/>
<path opacity="0.5" d="M20 40C31.0457 40 40 31.0457 40 20C40 8.9543 31.0457 0 20 0C8.9543 0 0 8.9543 0 20C0 31.0457 8.9543 40 20 40Z" fill="url(#paint0_linear_4001_510)"/>
<defs>
<linearGradient id="paint0_linear_4001_510" x1="20" y1="3.53163e-05" x2="20" y2="40" gradientUnits="userSpaceOnUse">
<stop stop-color="white"/>
<stop offset="0.2606" stop-color="white" stop-opacity="0.7394"/>
<stop offset="1" stop-color="white" stop-opacity="0"/>
</linearGradient>
</defs>
</svg>
