<svg width="37" height="31" viewBox="0 0 37 31" fill="none" xmlns="http://www.w3.org/2000/svg">
<path d="M-1.0318e-06 27.3835C0.89069 22.4639 6.06031 11.869 11.4351 7.84318C16.8807 3.97752 22.1625 -0.129074 28.5124 0.00310649C31.7697 0.190654 34.7362 4.17505 34.4163 9.63287C36.8452 11.8655 37.9735 15.8718 35.9638 19.7036C34.1326 23.3123 30.4303 26.35 27.4432 28.4993C24.6272 30.6591 22.0555 30.5109 18.7986 30.3229C15.3628 30.3568 11.8978 31.319 8.47669 30.89C5.57696 30.2586 3.1842 31.6532 0.477813 30.3369L-1.0318e-06 27.3835Z" fill="url(#paint0_linear_2777_8240)"/>
<path d="M0.99123 27.1186C1.72585 23.0609 5.99002 14.3235 10.4228 11.0025C14.9143 7.81422 19.2703 4.42642 24.5078 4.53715C27.1939 4.69128 29.6409 7.97784 29.3771 12.479C31.3802 14.3195 32.3108 17.6245 30.653 20.7839C29.1428 23.7602 26.0896 26.2657 23.6256 28.0384C21.3033 29.8196 19.1825 29.6974 16.496 29.5433C13.662 29.5717 10.8043 30.3643 7.98245 30.0106C5.5908 29.4899 3.61755 30.6406 1.38529 29.5542L0.99123 27.1186Z" fill="url(#paint1_radial_2777_8240)"/>
<path d="M21.3441 28.1706C25.2987 27.5376 29.2633 26.7196 32.0984 22.6085C33.15 21.0837 34.4779 19.6516 34.9088 17.5856C35.3863 15.2997 33.4636 13.491 32.9647 11.5891C32.871 11.231 32.4666 11.418 32.5533 11.7782C33.0393 13.7918 34.517 15.1046 34.3606 17.446C34.2395 19.2521 32.0855 21.4543 31.2262 22.6848C28.6091 26.4298 24.7135 26.5171 21.2688 27.6703C21.0585 27.7416 21.1316 28.2045 21.3441 28.1706Z" fill="url(#paint2_linear_2777_8240)"/>
<path d="M18.683 21.8708C17.7366 22.9572 16.5083 23.2131 15.4261 23.9598C13.9178 24.9997 12.557 26.3639 10.8557 26.776C9.71116 27.0538 8.58618 27.3885 7.44385 27.6763C6.0949 28.018 4.64005 27.7666 3.27192 27.9267C3.1247 27.9446 3.12839 28.205 3.2579 28.2569C5.80009 29.2784 8.87693 27.9297 11.3889 27.3122C12.7493 26.979 13.9894 25.7674 15.1457 24.8227C16.3699 23.8226 17.7163 23.3567 18.7391 21.9571C18.773 21.9102 18.7203 21.8279 18.683 21.8708Z" fill="url(#paint3_linear_2777_8240)"/>
<path d="M11.182 23.9118C9.70466 24.656 8.14466 25.3574 6.63668 25.9893C5.0254 26.6647 3.49934 27.7441 1.76519 27.2249C1.51871 27.151 1.44455 27.6014 1.63642 27.7576C2.7127 28.6355 4.38007 27.8035 5.44749 27.2498C7.38015 26.2467 9.35709 25.304 11.2462 24.1662C11.3613 24.0964 11.3038 23.851 11.182 23.9118Z" fill="url(#paint4_linear_2777_8240)"/>
<path d="M11.6529 16.1112C10.1991 18.2116 8.79226 20.3709 7.29978 22.422C6.53306 23.4749 5.70473 24.472 4.87381 25.4317C3.94733 26.5011 2.88433 26.8224 1.78849 27.383C1.56859 27.4962 1.62578 27.9756 1.87188 27.9396C3.75214 27.6688 5.04169 26.2577 6.3733 24.5528C8.36536 22.002 10.067 19.1474 11.7709 16.2489C11.8329 16.1426 11.7215 16.012 11.6529 16.1112Z" fill="url(#paint5_linear_2777_8240)"/>
<defs>
<linearGradient id="paint0_linear_2777_8240" x1="0.65657" y1="30.0024" x2="37.8828" y2="17.4183" gradientUnits="userSpaceOnUse">
<stop offset="0.101" stop-color="#6A1A3B"/>
<stop offset="0.256" stop-color="#C04989"/>
<stop offset="0.311" stop-color="#D24389"/>
<stop offset="0.596" stop-color="#DE49BD"/>
<stop offset="1" stop-color="#4062F6"/>
</linearGradient>
<radialGradient id="paint1_radial_2777_8240" cx="0" cy="0" r="1" gradientUnits="userSpaceOnUse" gradientTransform="translate(-0.491409 30.9253) rotate(-31.3267) scale(43.0283 51.8687)">
<stop stop-color="#30000D"/>
<stop offset="0.261" stop-color="#9C3468"/>
<stop offset="0.381" stop-color="#BF4586"/>
<stop offset="0.903984" stop-color="#585EEE"/>
</radialGradient>
<linearGradient id="paint2_linear_2777_8240" x1="19.9782" y1="28.6807" x2="35.1065" y2="20.0956" gradientUnits="userSpaceOnUse">
<stop stop-color="#DF52C0"/>
<stop offset="1" stop-color="#EBD5EC" stop-opacity="0"/>
</linearGradient>
<linearGradient id="paint3_linear_2777_8240" x1="2.96141" y1="28.4313" x2="18.0317" y2="24.2774" gradientUnits="userSpaceOnUse">
<stop stop-color="#75354F"/>
<stop offset="0.0001" stop-color="#4B0D23"/>
<stop offset="1" stop-color="#EB4BB1"/>
</linearGradient>
<linearGradient id="paint4_linear_2777_8240" x1="1.2338" y1="28.6807" x2="17.0965" y2="20.346" gradientUnits="userSpaceOnUse">
<stop stop-color="#832A4F"/>
<stop offset="1" stop-color="#B33F7C"/>
</linearGradient>
<linearGradient id="paint5_linear_2777_8240" x1="1.97443" y1="28.4314" x2="14.9367" y2="16.1041" gradientUnits="userSpaceOnUse">
<stop stop-color="#6B2642"/>
<stop offset="1" stop-color="#C75594"/>
</linearGradient>
</defs>
</svg>
