<svg width="88" height="79" viewBox="0 0 88 79" fill="none" xmlns="http://www.w3.org/2000/svg">
<path d="M79.3249 56.8407C68.1301 59.4438 42.2949 60.3072 30.6675 55.6604C19.3515 50.7833 7.59734 46.3362 4.51408 36.9687C3.19346 32.0686 10.3021 24.5808 22.3667 20.718C25.9429 15.404 34.0752 10.5802 43.4932 10.4723C52.3304 10.2809 60.9163 13.2717 67.1864 15.9242C73.3885 18.3186 74.4311 22.1875 75.7504 27.0875C77.6485 32.0725 81.5851 36.3636 82.4666 41.6942C82.6299 46.4249 86.9397 48.809 85.5078 53.8009L79.3249 56.8407Z" fill="url(#paint0_linear_2777_8214)"/>
<path d="M78.2248 55.6084C68.9914 57.7555 47.6852 58.4662 38.094 54.6344C28.7608 50.6118 19.0646 46.9449 16.5252 39.2171C15.435 35.1767 21.2986 29.0002 31.2484 25.8146C34.1962 21.4326 40.9051 17.4536 48.6708 17.3656C55.9592 17.2076 63.0406 19.6739 68.2123 21.862C73.3272 23.8366 74.1869 27.0272 75.2773 31.0682C76.8439 35.1796 80.0885 38.7194 80.8159 43.1162C80.9508 47.018 84.5063 48.9836 83.3238 53.1015L78.2248 55.6084Z" fill="url(#paint1_radial_2777_8214)"/>
<path d="M69.7107 25.0788C66.2317 19.8123 62.344 14.678 51.879 13.8034C47.9975 13.4791 44.1715 12.678 39.44 13.6882C34.2045 14.8051 31.2836 19.0444 27.4034 21.2807C26.6727 21.7015 27.295 22.143 28.0338 21.7309C32.1643 19.4247 34.241 16.2278 39.4268 14.5988C43.4274 13.3426 49.3704 14.7378 52.5085 15.0152C62.0597 15.8622 64.3182 21.4754 68.6604 25.5854C68.9275 25.8356 69.8975 25.3619 69.7107 25.0788Z" fill="url(#paint2_linear_2777_8214)"/>
<path d="M57.3921 33.9633C60.2622 34.4821 61.472 36.0708 63.6739 37.0571C66.7413 38.4324 70.4369 39.3352 72.2381 41.4901C73.4512 42.9392 74.7779 44.3148 76.0116 45.7528C77.4725 47.4495 77.697 49.7711 78.7724 51.6397C78.8897 51.8403 79.4551 51.6283 79.4994 51.3983C80.376 46.8797 75.8031 43.4613 73.1236 40.287C71.6752 38.5669 68.3763 37.719 65.7034 36.7816C62.8739 35.7892 61.1437 34.1948 57.5504 33.8131C57.4302 33.8007 57.2788 33.943 57.3921 33.9633Z" fill="url(#paint3_linear_2777_8214)"/>
<path d="M65.8204 43.2819C68.2267 44.8466 70.5834 46.5659 72.7613 48.2642C75.0887 50.0789 78.2513 51.4487 78.0404 54.3902C78.0104 54.8083 79.0314 54.5592 79.2698 54.1555C80.6116 51.8892 77.9131 50.117 76.1397 48.9991C72.9275 46.9756 69.8233 44.8396 66.3407 42.9865C66.1274 42.874 65.6231 43.1526 65.8204 43.2819Z" fill="url(#paint4_linear_2777_8214)"/>
<path d="M48.5783 48.7876C53.9278 49.2421 59.3807 49.5815 64.6431 50.1316C67.345 50.4148 69.9578 50.8321 72.4905 51.2829C75.3131 51.7861 76.5776 53.0818 78.3813 54.2356C78.7448 54.4666 79.7591 54.0029 79.5502 53.6724C77.9616 51.1445 74.2016 50.3828 69.779 49.7928C63.1621 48.9104 56.0373 48.6925 48.8156 48.5062C48.5512 48.5001 48.3255 48.7663 48.5783 48.7876Z" fill="url(#paint5_linear_2777_8214)"/>
<defs>
<linearGradient id="paint0_linear_2777_8214" x1="84.6839" y1="53.8055" x2="50.7101" y2="0.985088" gradientUnits="userSpaceOnUse">
<stop offset="0.101" stop-color="#601735"/>
<stop offset="0.256" stop-color="#C04989"/>
<stop offset="0.311" stop-color="#D24389"/>
<stop offset="0.511" stop-color="#DE49BD"/>
<stop offset="1" stop-color="#FDFDFD"/>
</linearGradient>
<radialGradient id="paint1_radial_2777_8214" cx="0" cy="0" r="1" gradientUnits="userSpaceOnUse" gradientTransform="translate(87.3083 54.7515) rotate(-152.282) scale(77.1195 104.19)">
<stop stop-color="#30000D"/>
<stop offset="0.261" stop-color="#9C3468"/>
<stop offset="0.381" stop-color="#BF4586"/>
<stop offset="1" stop-color="white" stop-opacity="0"/>
</radialGradient>
<linearGradient id="paint2_linear_2777_8214" x1="71.5478" y1="26.6665" x2="52.5839" y2="4.69517" gradientUnits="userSpaceOnUse">
<stop stop-color="#DF52C0"/>
<stop offset="1" stop-color="#EBD5EC" stop-opacity="0"/>
</linearGradient>
<linearGradient id="paint3_linear_2777_8214" x1="80.0371" y1="51.6924" x2="67.4913" y2="30.3536" gradientUnits="userSpaceOnUse">
<stop stop-color="#75354F"/>
<stop offset="0.0001" stop-color="#4B0D23"/>
<stop offset="1" stop-color="#EB4BB1"/>
</linearGradient>
<linearGradient id="paint4_linear_2777_8214" x1="81.4955" y1="54.0105" x2="62.6902" y2="31.0968" gradientUnits="userSpaceOnUse">
<stop stop-color="#832A4F"/>
<stop offset="1" stop-color="#B33F7C"/>
</linearGradient>
<linearGradient id="paint5_linear_2777_8214" x1="80.5673" y1="53.1328" x2="54.9285" y2="33.4435" gradientUnits="userSpaceOnUse">
<stop stop-color="#6B2642"/>
<stop offset="1" stop-color="#C75594"/>
</linearGradient>
</defs>
</svg>
