<svg width="38" height="43" viewBox="0 0 38 43" fill="none" xmlns="http://www.w3.org/2000/svg">
<path d="M3.54872 5.22502C8.5479 5.16063 19.9346 8.21367 24.9119 12.7215C29.7457 17.3295 34.7846 21.7307 35.8665 27.9892C36.3039 31.2224 32.9587 34.8946 27.5402 35.622C25.812 38.4323 22.0946 40.3043 17.9498 39.0626C14.0579 37.9537 10.3696 34.8991 7.68982 32.3769C5.0324 30.0248 4.68711 27.472 4.25026 24.2391C3.56138 20.8729 1.95571 17.6551 1.72402 14.215C1.7906 11.2481 -0.0349622 9.16541 0.740772 6.25758L3.54872 5.22502Z" fill="url(#paint0_linear_2777_8279)"/>
<path d="M3.99963 6.14749C8.12295 6.09437 17.5135 8.61302 21.6193 12.3307C25.606 16.1313 29.7627 19.7609 30.6534 24.9233C31.0146 27.5894 28.2554 30.6186 23.7866 31.2185C22.3621 33.536 19.2953 35.0801 15.8777 34.0556C12.6679 33.141 9.6259 30.622 7.4156 28.5415C5.22401 26.6018 4.93928 24.4966 4.57798 21.8301C4.0093 19.0535 2.68601 16.3996 2.49472 13.5621C2.54954 11.115 1.04347 9.39759 1.68395 6.99905L3.99963 6.14749Z" fill="url(#paint1_radial_2777_8279)"/>
<path d="M6.84827 26.3253C8.22419 30.0865 9.78366 33.8221 14.3602 35.8208C16.0576 36.562 17.7167 37.5923 19.827 37.6211C22.1621 37.6536 23.5706 35.4212 25.3424 34.5686C25.6761 34.4083 25.4153 34.047 25.0783 34.2008C23.1944 35.062 22.1877 36.7631 19.8595 37.0563C18.0634 37.2821 15.4907 35.5878 14.1188 34.9791C9.9433 33.1247 9.11431 29.3173 7.325 26.156C7.21485 25.9631 6.77442 26.1232 6.84827 26.3253Z" fill="url(#paint2_linear_2777_8279)"/>
<path d="M12.526 22.5124C11.279 21.7906 10.7935 20.6337 9.854 19.7139C8.54532 18.4317 6.94653 17.3562 6.21747 15.7648C5.72636 14.6943 5.18316 13.6538 4.68268 12.5874C4.08989 11.3285 4.05906 9.85237 3.64083 8.53992C3.59511 8.39883 3.34024 8.45213 3.31403 8.58916C2.79634 11.2796 4.70738 14.0425 5.79284 16.3905C6.37949 17.6623 7.80541 18.6484 8.95341 19.6033C10.1687 20.6142 10.8829 21.8469 12.452 22.5839C12.5045 22.6082 12.5752 22.5407 12.526 22.5124Z" fill="url(#paint3_linear_2777_8279)"/>
<path d="M9.09148 15.5377C8.07906 14.2295 7.09296 12.832 6.18486 11.4723C5.21445 10.0195 3.86371 8.72741 4.04252 6.92604C4.06796 6.67001 3.61167 6.68315 3.49503 6.90128C2.83864 8.1253 3.9735 9.60328 4.72066 10.5454C6.07408 12.2512 7.37671 14.0119 8.85402 15.6493C8.94453 15.7489 9.17445 15.6456 9.09148 15.5377Z" fill="url(#paint4_linear_2777_8279)"/>
<path d="M16.837 14.5111C14.4978 13.4849 12.1097 12.5158 9.81159 11.4421C8.63169 10.8904 7.49486 10.2676 6.39426 9.63503C5.16771 8.92963 4.64954 7.94745 3.89009 6.97873C3.73699 6.78447 3.27738 6.93206 3.35959 7.16679C3.98423 8.96083 5.61545 9.95744 7.54309 10.9393C10.4272 12.408 13.554 13.5337 16.7244 14.6533C16.8405 14.6939 16.9475 14.5595 16.837 14.5111Z" fill="url(#paint5_linear_2777_8279)"/>
<defs>
<linearGradient id="paint0_linear_2777_8279" x1="1.1032" y1="6.36924" x2="20.5592" y2="40.5104" gradientUnits="userSpaceOnUse">
<stop offset="0.101" stop-color="#6A1A3B"/>
<stop offset="0.256" stop-color="#C04989"/>
<stop offset="0.311" stop-color="#D24389"/>
<stop offset="0.596" stop-color="#DE49BD"/>
<stop offset="1" stop-color="#4062F6"/>
</linearGradient>
<radialGradient id="paint1_radial_2777_8279" cx="0" cy="0" r="1" gradientUnits="userSpaceOnUse" gradientTransform="translate(-0.0200424 5.41845) rotate(47.6733) scale(43.0283 51.8687)">
<stop stop-color="#30000D"/>
<stop offset="0.261" stop-color="#9C3468"/>
<stop offset="0.381" stop-color="#BF4586"/>
<stop offset="0.903984" stop-color="#585EEE"/>
</radialGradient>
<linearGradient id="paint2_linear_2777_8279" x1="6.08685" y1="25.0818" x2="17.4008" y2="38.2941" gradientUnits="userSpaceOnUse">
<stop stop-color="#DF52C0"/>
<stop offset="1" stop-color="#EBD5EC" stop-opacity="0"/>
</linearGradient>
<linearGradient id="paint3_linear_2777_8279" x1="3.08619" y1="8.33141" x2="10.0394" y2="22.3322" gradientUnits="userSpaceOnUse">
<stop stop-color="#75354F"/>
<stop offset="0.0001" stop-color="#4B0D23"/>
<stop offset="1" stop-color="#EB4BB1"/>
</linearGradient>
<linearGradient id="paint4_linear_2777_8279" x1="2.512" y1="6.68221" x2="13.7204" y2="20.6631" gradientUnits="userSpaceOnUse">
<stop stop-color="#832A4F"/>
<stop offset="1" stop-color="#B33F7C"/>
</linearGradient>
<linearGradient id="paint5_linear_2777_8279" x1="2.89649" y1="7.36128" x2="17.4706" y2="17.7333" gradientUnits="userSpaceOnUse">
<stop stop-color="#6B2642"/>
<stop offset="1" stop-color="#C75594"/>
</linearGradient>
</defs>
</svg>
