<svg width="40" height="40" viewBox="0 0 40 40" fill="none" xmlns="http://www.w3.org/2000/svg">
<path d="M20 40C8.97176 40 0 31.0282 0 20C0 8.97176 8.97176 0 20 0C31.0282 0 40 8.97176 40 20C40 31.0282 31.0282 40 20 40Z" fill="url(#paint0_linear_4002_9)"/>
<path d="M32.0992 13.0864C31.4279 13.3902 30.6651 13.5744 29.9407 13.6962C30.2845 13.6381 30.7797 13.0156 30.9826 12.7639C31.2919 12.38 31.5431 11.9419 31.6879 11.4692C31.7065 11.4324 31.7175 11.3858 31.6807 11.3578C31.6341 11.3392 31.6029 11.3491 31.5661 11.3671C30.7578 11.8009 29.9204 12.1152 29.0303 12.3378C28.9563 12.3565 28.9015 12.3378 28.8549 12.2912C28.7814 12.2078 28.7117 12.1294 28.6333 12.0647C28.2593 11.7461 27.8573 11.4966 27.4049 11.3123C26.8104 11.0699 26.1611 10.9674 25.5212 11.009C24.8987 11.0496 24.2867 11.2251 23.7339 11.5141C23.1801 11.8037 22.686 12.2062 22.2922 12.6915C21.8853 13.1939 21.5848 13.7872 21.4312 14.4162C21.2826 15.0233 21.2947 15.6238 21.3857 16.2369C21.3994 16.3389 21.3901 16.3526 21.2985 16.3389C17.8156 15.8207 14.9289 14.5747 12.5856 11.904C12.4836 11.7878 12.4288 11.7878 12.3448 11.9128C11.3193 13.45 11.8173 15.9199 13.0978 17.1335C13.2689 17.2953 13.4444 17.4571 13.6336 17.6046C13.5645 17.6189 12.7123 17.5262 11.9522 17.1335C11.8502 17.0694 11.7992 17.1061 11.7904 17.2218C11.7811 17.388 11.7954 17.5404 11.8178 17.7209C12.0147 19.2789 13.094 20.72 14.5713 21.2827C14.7468 21.3562 14.941 21.4214 15.1301 21.4533C14.7934 21.5273 14.4469 21.5799 13.4811 21.5042C13.361 21.4812 13.315 21.541 13.361 21.6567C14.0866 23.6342 15.6528 24.2226 16.8258 24.5583C16.9826 24.5857 17.14 24.5857 17.2974 24.6224C17.2881 24.6367 17.2782 24.6367 17.2694 24.6504C16.8801 25.2438 15.5316 25.6852 14.9031 25.9046C13.7608 26.3038 12.5165 26.4837 11.3095 26.3641C11.1164 26.3356 11.0759 26.3378 11.0232 26.3641C10.97 26.397 11.0166 26.4431 11.0786 26.493C11.3237 26.6548 11.5727 26.7985 11.8272 26.9372C12.5938 27.3436 13.3934 27.6671 14.2291 27.898C18.5461 29.0902 23.4093 28.2144 26.6503 24.9937C29.1954 22.4645 30.0877 18.9767 30.0877 15.4845C30.0877 15.348 30.2489 15.2723 30.3448 15.2004C31.0073 14.7025 31.5804 14.1075 32.0745 13.4423C32.1853 13.2931 32.2253 13.1604 32.2253 13.1056C32.2253 13.0962 32.2253 13.0869 32.2253 13.0869C32.2253 13.031 32.1853 13.0474 32.0992 13.0864Z" fill="white"/>
<defs>
<linearGradient id="paint0_linear_4002_9" x1="19.9999" y1="0.000164519" x2="19.9999" y2="40.0002" gradientUnits="userSpaceOnUse">
<stop stop-color="#B1D5EE"/>
<stop offset="1" stop-color="#68ADDE"/>
</linearGradient>
</defs>
</svg>
