<svg width="60" height="54" viewBox="0 0 60 54" fill="none" xmlns="http://www.w3.org/2000/svg">
<path d="M53.2473 5.42973C53.0219 12.9935 47.9244 29.931 41.1498 37.0467C34.2409 43.9361 27.6153 51.1546 18.58 52.2221C13.9201 52.5898 8.87136 47.1992 8.17351 38.9412C4.25701 36.0734 1.81116 30.2833 3.8535 24.1298C5.68956 18.3466 10.3002 13.0479 14.084 9.22545C17.6227 5.42142 21.3019 5.13115 25.9614 4.76419C30.828 4.02831 35.54 1.89294 40.4833 1.85497C44.7298 2.22497 47.8296 -0.345903 51.9464 1.09085L53.2473 5.42973Z" fill="url(#paint0_linear_2777_8306)"/>
<path d="M8.67173 38.8991L8.65256 38.6722L8.4689 38.5377C4.72209 35.7942 2.3562 30.2284 4.32804 24.2873L4.32808 24.2873L4.33005 24.2811C6.12703 18.621 10.66 13.3951 14.4393 9.5772L14.4448 9.57168L14.45 9.566C17.8436 5.91801 21.3353 5.63006 26.0007 5.26265L26.0185 5.26125L26.0362 5.25857C28.0148 4.95938 29.9726 4.43118 31.8981 3.9117C32.3742 3.78323 32.8484 3.65531 33.3204 3.53151C35.7113 2.90445 38.0666 2.37683 40.464 2.35514C42.3699 2.51659 44.0634 2.11116 45.6303 1.73603C45.8817 1.67584 46.1298 1.61643 46.3751 1.56026C48.0995 1.16536 49.7209 0.914612 51.5422 1.48374L52.745 5.49523C52.6181 9.21168 51.3084 15.2383 49.1832 21.2393C47.0417 27.2863 44.1038 33.2163 40.7922 36.6972C40.3304 37.1577 39.8706 37.6189 39.412 38.0789C36.4279 41.072 33.4915 44.0174 30.358 46.4209C26.752 49.1868 22.9234 51.2031 18.5312 51.7244C16.4165 51.8873 14.1385 50.7474 12.2761 48.4975C10.417 46.2514 9.01315 42.9392 8.67173 38.8991Z" stroke="#B1607A" stroke-opacity="0.1"/>
<path d="M51.9013 6.02447C51.7154 12.2631 47.5104 26.2312 41.9232 32.101C36.2249 37.7832 30.7607 43.738 23.308 44.6159C19.4652 44.92 15.3007 40.4734 14.7252 33.6629C11.4954 31.2989 9.47804 26.5224 11.1629 21.4485C12.6771 16.6789 16.4794 12.3086 19.6005 9.15585C22.5188 6.01864 25.553 5.77929 29.3962 5.47513C33.4103 4.86746 37.2966 3.10779 41.3741 3.07619C44.8765 3.38123 47.4327 1.26021 50.8284 2.44626L51.9013 6.02447Z" fill="url(#paint1_radial_2777_8306)"/>
<path d="M15.2234 33.6208L15.2042 33.394L15.0205 33.2595C11.9605 31.0197 10.0231 26.4675 11.6375 21.6061L11.6375 21.6061L11.6395 21.5998C13.1146 16.9533 16.8392 12.6558 19.9558 9.50761L19.9613 9.50209L19.9666 9.4964C22.7398 6.5152 25.5864 6.27821 29.4357 5.97357L29.4534 5.97217L29.4711 5.9695C31.1076 5.72175 32.7276 5.28484 34.3154 4.85664C34.7084 4.75066 35.0994 4.64521 35.4882 4.54329C37.4578 4.02699 39.3903 3.59485 41.3548 3.57637C42.9402 3.7098 44.3501 3.37199 45.6406 3.0628C45.8477 3.01319 46.0517 2.9643 46.2529 2.91823C47.6573 2.59656 48.9633 2.39526 50.4245 2.84017L51.3989 6.08988C51.2918 9.14381 50.2151 14.0969 48.4664 19.0341C46.7014 24.0174 44.2835 28.8936 41.5655 31.7516C41.1836 32.1324 40.8035 32.5137 40.4245 32.8939C37.9639 35.362 35.5475 37.7857 32.9692 39.7633C30.0026 42.0388 26.8601 43.6917 23.2591 44.1182C21.5531 44.2492 19.7004 43.3295 18.1765 41.4885C16.6559 39.6515 15.5036 36.9372 15.2234 33.6208Z" stroke="#B1607A" stroke-opacity="0.1"/>
<path d="M22.8061 8.50316C17.33 10.2419 11.8789 12.2604 8.72475 18.9978C7.55486 21.4968 5.97338 23.9116 5.79801 27.0993C5.60311 30.6266 8.71207 32.9587 9.82099 35.7148C10.0295 36.2338 10.5637 35.8724 10.3647 35.349C9.25049 32.4226 6.87734 30.7461 6.60522 27.1997C6.39579 24.4639 8.98661 20.7282 9.94591 18.7094C12.868 12.5651 18.3755 11.6574 23.0184 9.23927C23.3017 9.09025 23.1004 8.40986 22.8061 8.50316Z" fill="url(#paint2_linear_2777_8306)"/>
<path d="M15.593 12.1405C14.9045 12.525 14.2321 12.951 13.5874 13.439C15.8585 11.5792 18.5009 10.4694 21.251 9.53693C20.6891 9.79104 20.1177 10.0357 19.5397 10.2832C19.437 10.3272 19.334 10.3713 19.2309 10.4156C18.0165 10.9365 16.7796 11.4777 15.593 12.1405ZM9.90867 35.5786C9.90836 35.5785 9.90825 35.5763 9.90922 35.5724C9.90945 35.5768 9.90897 35.5787 9.90867 35.5786Z" stroke="#B1607A" stroke-opacity="0.1"/>
<path d="M27.9152 17.43C29.0285 15.6103 30.7168 14.9812 32.0943 13.6444C34.0145 11.7823 35.6568 9.46284 37.9832 8.5051C39.5481 7.8598 41.0733 7.13304 42.6329 6.47321C44.4743 5.6913 46.591 5.77869 48.4979 5.26556C48.703 5.20925 48.6428 4.81908 48.4482 4.76702C44.6265 3.74011 40.5467 6.37845 37.1138 7.80634C35.2544 8.57779 33.751 10.644 32.31 12.2929C30.7845 14.0385 28.973 15.0063 27.8175 17.3116C27.7792 17.3887 27.8714 17.5018 27.9152 17.43Z" fill="url(#paint3_linear_2777_8306)"/>
<path d="M35.5567 9.44209C36.115 8.93687 36.6846 8.53049 37.2802 8.27872C36.6602 8.59443 36.0911 8.99528 35.5567 9.44209ZM40.1061 7.03809C39.5338 7.29378 38.9644 7.54696 38.3924 7.79104C38.7585 7.62382 39.1289 7.44979 39.5012 7.27494C39.6696 7.19583 39.8383 7.11655 40.0072 7.03765C40.9306 6.60628 41.8657 6.1824 42.808 5.83532C44.2592 5.30078 45.6903 4.963 47.074 5.0488C46.7323 5.10302 46.3839 5.14979 46.028 5.19757C45.8445 5.22221 45.659 5.24712 45.4714 5.27345C44.4691 5.41412 43.4235 5.5944 42.4381 6.01272C41.7259 6.31404 41.021 6.62911 40.3217 6.94172C40.2498 6.97387 40.1779 7.006 40.1061 7.03809ZM48.3184 5.24989C48.3183 5.24986 48.3182 5.24982 48.3181 5.24979L48.3184 5.24989ZM37.7926 8.04286L37.7985 8.05725L37.7927 8.0428C37.7927 8.04282 37.7926 8.04284 37.7926 8.04286Z" stroke="#B1607A" stroke-opacity="0.1"/>
<path d="M38.1187 12.8712C40.0572 11.4594 42.1221 10.0954 44.1278 8.84597C46.2709 7.51077 48.2078 5.58597 50.7773 6.01984C51.1425 6.08154 51.1526 5.39052 50.8475 5.19437C49.1356 4.09091 46.946 5.67244 45.5487 6.7165C43.0189 8.60778 40.4135 10.4173 37.9739 12.5021C37.8254 12.6299 37.9588 12.9869 38.1187 12.8712Z" fill="url(#paint4_linear_2777_8306)"/>
<path d="M47.0506 6.33201C46.8024 6.46933 46.558 6.6174 46.3171 6.77122C46.9153 6.33899 47.5871 5.8957 48.2716 5.61202C49.0177 5.30278 49.6987 5.2148 50.2916 5.46395C49.0888 5.40142 48.0247 5.79301 47.0506 6.33201ZM50.5636 5.6873C50.5632 5.69007 50.5628 5.69134 50.5628 5.69128C50.5627 5.69123 50.5629 5.68984 50.5636 5.6873Z" stroke="#B1607A" stroke-opacity="0.1"/>
<path d="M39.0996 24.6761C40.7185 21.2328 42.2585 17.7104 43.9428 14.3335C44.8082 12.5998 45.7728 10.9376 46.749 9.33115C47.8375 7.54086 49.2776 6.84663 50.7137 5.78642C51.0018 5.57259 50.8195 4.86434 50.478 4.96732C47.868 5.74881 46.3366 8.12445 44.8074 10.9496C42.5199 15.1765 40.7084 19.8016 38.9031 24.493C38.8376 24.6648 39.0232 24.8388 39.0996 24.6761Z" fill="url(#paint5_linear_2777_8306)"/>
<path d="M49.5421 5.99625C48.9726 6.38426 48.3896 6.78142 47.8342 7.27367C48.4836 6.56957 49.198 6.01799 50.0308 5.66059C49.8697 5.77309 49.7064 5.88429 49.5421 5.99625Z" stroke="#B1607A" stroke-opacity="0.1"/>
<defs>
<linearGradient id="paint0_linear_2777_8306" x1="51.7634" y1="1.62865" x2="-9.29806" y2="27.9788" gradientUnits="userSpaceOnUse">
<stop offset="0.0319975" stop-color="#3D0E21"/>
<stop offset="0.177042" stop-color="#C04989"/>
<stop offset="0.24411" stop-color="#D24389"/>
<stop offset="0.394068" stop-color="#DE49BD"/>
<stop offset="0.586527" stop-color="#4A46A2"/>
<stop offset="1" stop-color="#5656B3"/>
</linearGradient>
<radialGradient id="paint1_radial_2777_8306" cx="0" cy="0" r="1" gradientUnits="userSpaceOnUse" gradientTransform="translate(53.2012 0.0136017) rotate(140.93) scale(49.089 60.8754)">
<stop stop-color="#30000D"/>
<stop offset="0.375115" stop-color="#9C3468"/>
<stop offset="0.544689" stop-color="#BF4586"/>
<stop offset="1" stop-color="#595CB9"/>
</radialGradient>
<linearGradient id="paint2_linear_2777_8306" x1="24.6359" y1="7.46491" x2="4.26074" y2="22.3764" gradientUnits="userSpaceOnUse">
<stop stop-color="#DF52C0"/>
<stop offset="1" stop-color="#EBD5EC" stop-opacity="0"/>
</linearGradient>
<linearGradient id="paint3_linear_2777_8306" x1="48.8319" y1="4.44597" x2="28.0799" y2="13.0828" gradientUnits="userSpaceOnUse">
<stop stop-color="#75354F"/>
<stop offset="0.0001" stop-color="#4B0D23"/>
<stop offset="1" stop-color="#EB4BB1"/>
</linearGradient>
<linearGradient id="paint4_linear_2777_8306" x1="51.2239" y1="3.72809" x2="29.7948" y2="18.4014" gradientUnits="userSpaceOnUse">
<stop stop-color="#832A4F"/>
<stop offset="1" stop-color="#B33F7C"/>
</linearGradient>
<linearGradient id="paint5_linear_2777_8306" x1="50.2288" y1="4.24954" x2="33.3006" y2="24.3809" gradientUnits="userSpaceOnUse">
<stop stop-color="#6B2642"/>
<stop offset="1" stop-color="#C75594"/>
</linearGradient>
</defs>
</svg>
